<svg xmlns="http://www.w3.org/2000/svg" viewBox="0 0 806.4 573.21"><defs><style>.a{fill:#f6ecc9;stroke:#ed302e;stroke-linecap:round;stroke-linejoin:round;stroke-width:6px;}.b{fill:#ed302e;}</style></defs><title>bubble</title><path class="a" d="M800.85,113.51c-24.7-101.29-222.77-140-442.39-86.4S-19.16,206.21,5.54,307.5C24.4,384.78,144.19,425.62,297.47,416.83c32.8,28.88,81.87,59.26,81.87,59.26l-47.59-4.73C435.94,555.58,478.53,569,572.89,570.21,489.42,558,443.82,486.45,443.82,486.45l66.41,2.12C474.71,477,433.08,423.36,421.13,400q13.34-2.82,26.8-6.1C667.55,340.33,825.56,214.8,800.85,113.51Z"/><path class="b" d="M87.78,228a38.66,38.66,0,0,1,14.68-2.12,35.15,35.15,0,0,1,13.32,3.35,33.86,33.86,0,0,1,10.82,8.24,38.91,38.91,0,0,1,7.33,12.61l0.94,2.49c3.26,8.67,2.36,18-2.59,28q-8.66,14.32-22.56,19l-2.22.75a28.08,28.08,0,0,1-5.22,1.36,8,8,0,0,1-3.26-.18,9.6,9.6,0,0,1-2.78-1.39,41.81,41.81,0,0,0-3.63-2.22q-1.31-2.83-2.37-5.28t-1.89-4.51l-1.75-4.44a251,251,0,0,1-9.18-31.46l-0.48-.07a51.06,51.06,0,0,0-5.8,3.64q-1.43.49-3.24-2.4l0.06-.49L66,247.66q-0.32-.59-0.72-1.4t-0.87-1.81a3.89,3.89,0,0,1,.6-3,14.27,14.27,0,0,1,3.48-4A39.81,39.81,0,0,1,75,233.18,62.64,62.64,0,0,1,84.81,229Zm2.94,16.47q5.82,20.53,11.86,36.64l0.67,1.65,0.2-.07c10.8-3.65,16.16-11,16.06-22.12a23.19,23.19,0,0,0-1.3-5.88l-0.21-.63a22.32,22.32,0,0,0-3.29-5.87,19.38,19.38,0,0,0-4.89-4.51,16.44,16.44,0,0,0-6.1-2.35,14.19,14.19,0,0,0-7,.66l-2.35.79A12.6,12.6,0,0,0,90.73,244.48Z"/><path class="b" d="M151.12,205q3.11-1,5.5,2.09a0.19,0.19,0,0,0,.28.15l0.21-.07q1.62-3.78,3.38-4.34a24.18,24.18,0,0,1,11.13,1.32,29.81,29.81,0,0,1,9.28,5.59,39.3,39.3,0,0,1,7.26,8.61,53.46,53.46,0,0,1,5.07,10.4l1,2.82a51.64,51.64,0,0,1,1.65,27.73q-5.11,13.8-16.31,17.35l-1,.32a22,22,0,0,1-10.91.63,30.13,30.13,0,0,1-10.81-4.38,39.66,39.66,0,0,1-9.49-8.7,45.17,45.17,0,0,1-6.94-12.33l-1-2.71a45.5,45.5,0,0,1-.19-31.8q4.87-10.44,11.51-12.57Zm5.42,38.72q3.24,8.87,7.64,13.23t9.62,2.7a7.42,7.42,0,0,0,3.48-2.5,11.67,11.67,0,0,0,2.22-4.89,22.64,22.64,0,0,0,.28-7.07,37.3,37.3,0,0,0-2.23-9.07l0-.11q-6-15.7-13.58-16.67-0.41-.22-5.85.93a1.78,1.78,0,0,0-1.58-.66q-5.64,8.21-.23,23.27Z"/><path class="b" d="M241.21,178.6q0.84-.25,6.91-1.33L249,177q2.62-.77,8.41-3.14a3.2,3.2,0,0,1,3.22.63A10.55,10.55,0,0,1,263,178.2a63.38,63.38,0,0,1,2.26,6.17q1.16,3.66,2.63,8.2,2.7,7.89,6.71,20t9.4,29.06q-0.42,2.78-3.63,3.7l-2.58.75q-1.45.42-6.83,2.68a2.06,2.06,0,0,1-2.07-.38,6,6,0,0,1-1.39-1.85,10.33,10.33,0,0,1-.82-2.19c-0.18-.72-0.3-1.19-0.36-1.4q-1.21-3.69-4.42-13.69t-8.46-26.62q-0.51,1-.23,26.22-0.57,20.19-1,22.27a4.24,4.24,0,0,1-2.57,2.27q-3-.16-4.94-0.2a18.59,18.59,0,0,1-3.24-.31,4,4,0,0,1-2-.92,4.28,4.28,0,0,1-1.09-1.93q-8.35-12.67-13.79-20.71t-8.27-12.05l-0.21.06q6.27,20.84,12.44,41.7a6.43,6.43,0,0,0-.8,1.4q-3.9,1.18-13.81,1.09-2.67-1.73-4.66-7.39l-0.53-1.69a263.18,263.18,0,0,1-8.09-27.59q-3.31-14.08-5.58-29.42a5,5,0,0,1,3.6-3.43l5.2-.89,6.1-2.78,2.09-.63q4.17-.91,5.27,2.24,3.2,4,8.16,11.18T237.1,219l0.42-.12q0-8.11.09-15.26T238.06,191a58.63,58.63,0,0,1,1.14-8.73Q239.95,179,241.21,178.6Z"/><path class="b" d="M287.87,163.2q1.58-.44,2.79,2.1,3.82,14.51,6.73,24.88t5.16,17.35q1.5,4.42,3.61,10.17t5.08,13q1,3.28-.28,4.92a9.2,9.2,0,0,1-4.75,2.6,10.33,10.33,0,0,1-1.91.37,4.25,4.25,0,0,0-1.47.36,10.51,10.51,0,0,0-2.2,1.31l-1.3.14-1.29.6q-2.07.59-4.48-6.57-2.39-7.46-4.79-14.91-9.25-27.38-13.39-48.73c-0.35-.67,2.8-2.46,9.49-5.35A8.54,8.54,0,0,1,287.87,163.2Z"/><path class="b" d="M320.7,155.5c1.48-.4,5.27,3.75,11.32,12.47,7.35,10.14,12.61,16.66,15.83,19.56l0.21-.06q-0.69-3.26-2.39-8.56-1-3.29-3-9.38t-5-15.39q-0.26-1.31,1.76-1.85l2.9-.43c0.69-.11,1.11-0.18,1.25-0.22l0.64-.17q0.64-.17,4.49-1.88,4.57-1.21,5.6,2.08,1.26,2.89,2.41,6T359,164l2.11,6.8q3,9.66,5.88,21.37t5.62,26q-2.51,2.73-4.39,3.23l-1,.21L365,222a9.05,9.05,0,0,1-2.74,1.88q-4.07,1.08-9.28-6-13.4-15.83-27-31.58l-0.21.06q-0.63.17,3.76,14.86,2.27,7,4.53,14.07,4.11,13,2.33,13.52a21.54,21.54,0,0,1-5.32,2.61,13.16,13.16,0,0,1-5.5.36l-0.77.44q-1.77.49-3.86-4.12-4.82-15-8.81-30.46t-7.71-32.5C304.1,164,309.5,160.78,320.7,155.5Z"/><path class="b" d="M379.76,138.51q1.6-.41,2.76,2.16,3.53,14.59,6.22,25t4.8,17.46q1.42,4.45,3.41,10.25t4.82,13.1q1,3.3-.39,4.91a9.26,9.26,0,0,1-4.83,2.5,10.39,10.39,0,0,1-1.93.32,4.32,4.32,0,0,0-1.48.32,10.81,10.81,0,0,0-2.24,1.27l-1.31.11-1.31.57q-2.1.54-4.36-6.67-2.24-7.51-4.49-15-8.7-27.58-12.38-49c-0.34-.67,2.87-2.4,9.66-5.14A8.56,8.56,0,0,1,379.76,138.51Z"/><path class="b" d="M415.33,130.25q3.21-.79,5.44,2.44a0.2,0.2,0,0,0,.27.16l0.21-.05q1.88-3.67,3.71-4.11a24.93,24.93,0,0,1,11.2,2,30.32,30.32,0,0,1,9.06,6.17,39.4,39.4,0,0,1,6.81,9.06,53,53,0,0,1,4.48,10.7l0.84,2.88a50.83,50.83,0,0,1-.11,27.78q-6.07,13.45-17.65,16.28l-1.05.26a22.77,22.77,0,0,1-11.11-.06,30.84,30.84,0,0,1-10.68-5.06,40,40,0,0,1-9.07-9.29,44.9,44.9,0,0,1-6.25-12.74l-0.85-2.76a44.83,44.83,0,0,1,1.85-31.75q5.61-10.11,12.48-11.81Zm3,39q2.71,9.06,6.9,13.68t9.58,3.31a7.56,7.56,0,0,0,3.69-2.28,11.6,11.6,0,0,0,2.56-4.74,22.27,22.27,0,0,0,.74-7,36.77,36.77,0,0,0-1.68-9.2l0-.11q-5-16-12.7-17.5-0.41-.24-6,0.56a1.83,1.83,0,0,0-1.56-.76c-4.16,5.23-4.72,13-1.73,23.21Z"/><path class="b" d="M475.92,116.46c1.51-.35,5.18,3.94,11,12.88,7,10.4,12.1,17.12,15.25,20.13l0.22,0a88.09,88.09,0,0,0-2.1-8.64q-0.92-3.32-2.66-9.49t-4.51-15.57q-0.21-1.32,1.84-1.78l2.94-.32c0.7-.08,1.12-0.14,1.27-0.17l0.65-.15q0.65-.15,4.6-1.72,4.65-1,5.58,2.29,1.16,2.93,2.21,6.06t2.06,6.43l1.88,6.87q2.68,9.77,5.14,21.57T526,181q-2.64,2.63-4.55,3.06l-1,.17-2.22.33a9.11,9.11,0,0,1-2.83,1.77q-4.15.93-9.14-6.36-12.94-16.32-26.08-32.56l-0.21.05q-0.65.15,3.25,15,2,7.11,4.05,14.23,3.66,13.18,1.85,13.6a21.9,21.9,0,0,1-5.47,2.41,13.41,13.41,0,0,1-5.56.16l-0.79.41q-1.8.42-3.74-4.26-4.31-15.19-7.76-30.76t-6.58-32.77C458.87,124.36,464.43,121.32,475.92,116.46Z"/><path class="b" d="M566.36,98.12a40.9,40.9,0,0,1,15.26-.41,37,37,0,0,1,13.23,4.87A34.62,34.62,0,0,1,605,112a38.49,38.49,0,0,1,6,13.37l0.67,2.59c2.32,9,.33,18.14-5.9,27.47q-10.53,13.22-25.3,16.27l-2.36.49a29.8,29.8,0,0,1-5.5.75,8.45,8.45,0,0,1-3.32-.55,10,10,0,0,1-2.68-1.71,42.88,42.88,0,0,0-3.45-2.62q-1-3-1.81-5.52t-1.4-4.7l-1.28-4.61a244.45,244.45,0,0,1-5.73-32.31l-0.48-.12a52.75,52.75,0,0,0-6.36,2.94q-1.52.32-3-2.76l0.12-.48-1.38-5.39c-0.17-.42-0.37-0.91-0.57-1.47s-0.43-1.2-.68-1.9a3.81,3.81,0,0,1,1-2.94,14.5,14.5,0,0,1,4-3.53,41.14,41.14,0,0,1,7.17-3.51,65.55,65.55,0,0,1,10.49-3Zm1.09,16.7q3.56,21.07,7.86,37.77l0.5,1.71,0.22,0c11.47-2.38,17.82-9.06,19-20.12a22.6,22.6,0,0,0-.64-6l-0.14-.65a22.05,22.05,0,0,0-2.68-6.21,19.64,19.64,0,0,0-4.47-5,17.17,17.17,0,0,0-6-3,15,15,0,0,0-7.26-.15l-2.5.52A13.21,13.21,0,0,0,567.45,114.82Z"/><path class="b" d="M640.44,80.4c1.46-.28,4.07,3.35,7.79,10.88q9.66,16.64,16.85,30.3t12.38,25l0.09,0.44a2.5,2.5,0,0,1,.07,1.74,3.94,3.94,0,0,1-1.43,1.28q-1.15.72-3.38,1.92a56.56,56.56,0,0,0-5.67,3.64,2.88,2.88,0,0,1-1.47.5q-3.57.66-7.05-8.18l-5-9.93c-0.29.05-.45,0-0.48-0.14a0.87,0.87,0,0,1-.52.21,0.1,0.1,0,0,0-.09.13L638,141.88q-0.2,8.19-.67,12.69t-1,5.52l-1.42.73a62.86,62.86,0,0,1-6.39.28,10.52,10.52,0,0,1-3.54-.55,3.37,3.37,0,0,1-1.78-1.52,13.48,13.48,0,0,1-1-2.74q-0.32-7.36-.65-14.71-0.42-2-5.57-6.5a0.66,0.66,0,0,1-.2-0.41,0.33,0.33,0,0,0-.16-0.19q-0.73-2.35,6.2-4.28,1.09-1.23,2.21-15,1.33-7.51,3.15-14.94t4-15Q630.76,84.27,640.44,80.4Zm-1.08,26q-0.6,7.92-.77,12.71a25.3,25.3,0,0,0,.27,6.4q8.26-1.57,8.06-2.55C642.19,111.88,639.65,106.36,639.36,106.41Z"/><path class="b" d="M679.72,74.77c2.13-.38,6,3.84,11.47,12.66,4.67,6.63,7.29,10.09,7.87,10.37q4-20.57,8.29-26.62a9.62,9.62,0,0,1,4.1-1.83c0.66-.11,3.82.25,9.48,1.1a4.89,4.89,0,0,1,3.79,1.28c0.32,1.23-3.24,12.42-10.55,33.61q-3.4,10-2.71,12.32,2.32,10.21,4,16.34t2.54,8.59a5.47,5.47,0,0,1-4.23,3.77,19.08,19.08,0,0,1-5.69-.37,15.94,15.94,0,0,1-4,1.6l-0.87.15q-6,.38-7-3.84A13.75,13.75,0,0,1,696,142a4.14,4.14,0,0,0-.26-1.31l-0.17-.87q-1.27-5.3-2.1-11T692,117.11c-15.62-19-24.18-30.39-25.37-34.32l-0.22,0q-0.54-2,8-5A9.32,9.32,0,0,1,679.72,74.77Z"/><path class="b" d="M315.65,278.23q1.1-.31,1.93,1.51,2.6,10.36,4.58,17.77t3.52,12.39q1,3.16,2.48,7.27t3.49,9.28q0.72,2.34-.21,3.51a6.35,6.35,0,0,1-3.32,1.84,7.1,7.1,0,0,1-1.33.25,2.92,2.92,0,0,0-1,.25,7.35,7.35,0,0,0-1.54.93l-0.91.09-0.9.42q-1.44.41-3.1-4.7l-3.28-10.65A271.33,271.33,0,0,1,307,283.56q-0.36-.71,6.6-3.76A5.9,5.9,0,0,1,315.65,278.23Z"/><path class="b" d="M339,271.72A21.67,21.67,0,0,1,355.87,274L356,274.3q0.57,1.81-2.59,9.63l-0.15,0q-5.13-1.8-8.58-.85l-1.47.4c-2.41,1-3.41,2.12-3,3.37l0,0.15q1,3.49,11.56,3.71,11.9,1.26,15.06,11.64l0.26,1c1.88,6.26-.14,12.23-6,17.92a23.2,23.2,0,0,1-6.35,3.38l-1.23.34a18.24,18.24,0,0,1-4.62.5,27,27,0,0,1-5.82-.6,18.73,18.73,0,0,1-5.33-2,6.19,6.19,0,0,1-3.1-3.61q-0.71-2,2.68-5.34,1-4.46,2.06-4.76,0.44-.12,5,2.3a12.13,12.13,0,0,0,7.49.8l0.44-.12q4.08-1.12,3.36-4.94l-0.12-.46q-1.2-4.17-10.13-4.43a38.2,38.2,0,0,1-7.76-.85,17,17,0,0,1-5.1-2,10.23,10.23,0,0,1-3.13-2.94,14.45,14.45,0,0,1-1.78-3.73l-0.19-.68a17.23,17.23,0,0,1-.86-6.08,15,15,0,0,1,5.14-10.91,15.11,15.11,0,0,1,6.14-3.22Z"/><path class="b" d="M390.52,258.88q1.55-.4,7.73,9,7.51,11,10.81,14.11l0.15,0q-0.44-2.33-1.58-6.13-0.69-2.35-2-6.72t-3.33-11q-0.17-.94,1.24-1.3l2-.28c0.48-.07.77-0.12,0.87-0.14l0.44-.11q0.44-.11,3.14-1.29,3.18-.81,3.87,1.54,0.85,2.07,1.61,4.28t1.52,4.55l1.4,4.87q2,6.92,3.89,15.29t3.67,18.6a7.22,7.22,0,0,1-3.1,2.26l-0.71.14-1.53.27a6.28,6.28,0,0,1-1.93,1.31q-2.85.73-6.42-4.39-9.19-11.42-18.49-22.8l-0.15,0q-0.44.12,2.46,10.64l3,10.08q2.72,9.34,1.48,9.66a14.82,14.82,0,0,1-3.75,1.8,9,9,0,0,1-3.85.2l-0.54.31q-1.24.33-2.65-3-3.19-10.76-5.78-21.81t-5-23.26C378.88,264.75,382.68,262.51,390.52,258.88Z"/><path class="b" d="M431.73,247.38q1.12-.28,1.9,1.56,2.32,10.43,4.11,17.89t3.2,12.49q0.95,3.19,2.29,7.33t3.25,9.37q0.66,2.36-.31,3.5a6.41,6.41,0,0,1-3.39,1.74,7.18,7.18,0,0,1-1.35.22,3,3,0,0,0-1,.22,7.45,7.45,0,0,0-1.57.88l-0.92.07L437,303q-1.47.37-3-4.79-1.5-5.37-3-10.74a269.66,269.66,0,0,1-8.16-35.05q-0.34-.72,6.75-3.57A6,6,0,0,1,431.73,247.38Z"/><path class="b" d="M461.23,241.11a10.76,10.76,0,0,1,6.74.74l0.3-.07a9.35,9.35,0,0,1,1.46-.84,19.5,19.5,0,0,1,3.22.08,6.38,6.38,0,0,1,1.9.52,3.21,3.21,0,0,1,1.12.87l0.87,1.14q0.13,5.74-3.45,15.05a7,7,0,0,1-2.15,2.79,4.36,4.36,0,0,1-1.8-.3c-0.9-.27-1.85-0.58-2.82-0.95A22.17,22.17,0,0,1,464,259a3,3,0,0,1-1.23-.84,25,25,0,0,1,.43-5l-0.3.07c-5.3,7.74-6.79,15.57-4.55,23.49a17.55,17.55,0,0,0,1.39,3.44,12.55,12.55,0,0,0,2,2.78,6.64,6.64,0,0,0,2.48,1.67,5,5,0,0,0,3,.12l1.92-.47q3.32-.8,4.1-5.71a2.59,2.59,0,0,0,0-1.3l-0.07-.31-5.36,3.08a1.37,1.37,0,0,1-1.37-.48,6.36,6.36,0,0,1-1.12-1.72,17.93,17.93,0,0,1-.88-2.35q-0.39-1.29-.67-2.44-0.93-3.19,1-4.56a129.76,129.76,0,0,1,11.13-6.74,33.72,33.72,0,0,1,7.18-3q1.86-.44,3.43,1.55c0,0.42.1,0.8,0.15,1.14a2.72,2.72,0,0,0,.23.8,15.6,15.6,0,0,0,.52,1.71,19.89,19.89,0,0,1,.63,2.17q0.73,2.43-3.63,4.19,1.28,4.74-.27,12-3.19,9.95-13.5,12.43l-1.4.34a17.06,17.06,0,0,1-6.55.33,15.49,15.49,0,0,1-6-2.22,18.52,18.52,0,0,1-5.1-4.89,25,25,0,0,1-3.65-7.69l-0.23-.92c-2.48-8.78-1.76-17.93,2.25-27.43q5.17-9.66,11.08-11.08Z"/><path class="b" d="M520.68,228.28q2.53-.33,2.88.81Q526.15,241,529,252.57t5.91,23.68q0.82,3.3-7.94,5.28l-0.74.17a2.17,2.17,0,0,1-2.21-.63,7.85,7.85,0,0,1-1.49-2.42,22.49,22.49,0,0,1-1-3.09q-0.41-1.61-.75-2.75-0.6-2.3-1.25-5.11l-1.41-6.13-2.46.56q-1.94.44-4.45,1.26t-5.77,2l1.24,4.66q0.75,2.91,1.7,6.14t2.15,7.09q0.52,1.91-7.25,3.71-3.33.13-3.74-1.32a46.27,46.27,0,0,1-1.89-4.43q-0.85-2.32-1.62-4.9L493.77,267a17.52,17.52,0,0,1-5.91-7.38q-0.26-1.08,2.93-1.91a6.11,6.11,0,0,0-.17-1.54q-0.25-1.53-.67-3.82t-0.9-4.95q-0.48-2.65-.76-5a38.22,38.22,0,0,1-.3-3.91c0-1.05.15-1.62,0.5-1.7a23.52,23.52,0,0,1,5.84-2.34l1.35-.31q1.65-.38,2.51,1.94,0.25,1.73,1.19,6T502,253.65l0.15,0c0.25-.06.95-0.31,2.1-0.77l5-2a13.07,13.07,0,0,1,6,.41l0.15,0-0.5-1.83q-3.41-17.07-2.22-17.35,1-1.2,7.75-3.71Z"/><path class="b" d="M545.72,220.2q2.11-.46,2.63,1.13,0.28,3.34.47,9.13t0.33,14.1q0.33,4.3.45,6.79a24.33,24.33,0,0,1,0,3.15,4.72,4.72,0,0,1-3.11,2.22l-0.07,0q-3.59.79-4.7-3.82-4.65-11.61-7.68-18.11t-3.92-8.66a1.61,1.61,0,0,1,1.58-2.05l2.14-.31,1.78-.52,1.12-.29,0.54-.08,1.38-.18a59.12,59.12,0,0,1,6.72-2.45Zm2.92,40q6.5-.7,7.76,4.29,0.75,7,0,7.12a6.31,6.31,0,0,1-4.74,4.36l-0.52.11q-4.76,1-8.64-4.08a4.34,4.34,0,0,1-.75-1.62l-0.14-.62a6.34,6.34,0,0,1-.15-2.44,7.81,7.81,0,0,1,.85-2.82,8.87,8.87,0,0,1,1.95-2.5,6.62,6.62,0,0,1,3.1-1.54Z"/></svg>