<svg xmlns="http://www.w3.org/2000/svg" viewBox="0 0 127.06 124.61"><defs><style>.a{fill:#31a3db;}.b{fill:#ed302e;}.c{fill:#f6ecc9;}</style></defs><title>dc-logo</title><path class="a" d="M106,45.5c0.43,25-19.24,45.14-43.93,45S17.07,70,16.64,45,35.88-.14,60.57,0s45,20.51,45.47,45.5h0Z"/><path class="b" d="M95.8,40.76H95.73l-0.25,0c-0.4.07-.81,0.11-1.22,0.15S93.4,41,93,41.07a7.28,7.28,0,0,0-1.51.37h0l-0.07,0v0h0a0.72,0.72,0,0,1,.07-0.12h0v0h0c0.16-.22.43-0.64,0.48-0.74l0.2-.32h0a0.53,0.53,0,0,0,.1-0.23h0a0.17,0.17,0,0,0-.19-0.09H92l-0.14,0a4.34,4.34,0,0,0-.74.17,7.77,7.77,0,0,0-1.54.66c-0.23.14-.48,0.26-0.72,0.38l-0.36.19h0s0,0,0,0h0l0-.88c0-.18,0-0.38,0-0.55a0.2,0.2,0,0,0,0-.15,0.1,0.1,0,0,0-.08,0l-0.09,0a3.52,3.52,0,0,0-.53.27L87.61,40c-0.3.18-.62,0.37-0.91,0.58s-0.41.3-.6,0.46l-0.25.2-0.33.26-0.72.56-1.35,1h0s0,0,0,0a1.35,1.35,0,0,1,0-.16l0.1-.36,0-.12,0.18-.62,0.32-1.13c0.05-.19.1-0.39,0.13-0.55a0.4,0.4,0,0,0,0-.1v0s0-.06-0.1-0.06H84.06l-0.13,0-0.36.12L83,40.25l-0.21,0H82.75a0,0,0,0,1,0,0l0-.14,0.2-.59,0.28-.83,0-.12A2.47,2.47,0,0,1,83.58,38a0.16,0.16,0,0,0,0-.21,0.17,0.17,0,0,0-.11,0H83.4L82.5,38l-0.65.18-0.25.07h0A0.17,0.17,0,0,1,81.51,38h0a11.22,11.22,0,0,0,.07-1.65c0-.18,0-0.37,0-0.55a0.22,0.22,0,0,0-.06-0.19h0l-0.08,0,0,0a4.84,4.84,0,0,1-.88.72A8.07,8.07,0,0,0,79.1,37.5l-0.53.56-0.26.28-0.07.08,0,0h0a9.53,9.53,0,0,1-.15-1.73A0.06,0.06,0,0,0,78,36.64h0l0,0-0.12.07-0.17.17a3.35,3.35,0,0,0-.43.58L77,37.8a3.49,3.49,0,0,0-.42.77,3.41,3.41,0,0,1-.37.66l-0.13.2h0l0,0.08h0l0,0,0,0,0,0L75.9,39.3A2.87,2.87,0,0,0,75.74,39a2.35,2.35,0,0,0-.25-0.37,0.18,0.18,0,0,0-.13-0.08,0.14,0.14,0,0,0-.11.14c0,0.09,0,.19-0.05.27l-0.09.51c0,0.28-.1.57-0.14,0.85l0,0.19a5.26,5.26,0,0,0-.09.64c0,0.37,0,.76,0,1.13,0,0.14,0,.27,0,0.41a0.62,0.62,0,0,1,0,.08h0v0l0,0-0.07-.06-0.22-.22-0.72-.71-0.12-.09-0.06,0a0.07,0.07,0,0,0-.07.05h0c0,0.07,0,.13-0.05.18s0,0.28,0,.4a10.77,10.77,0,0,0,0,1.73,1.41,1.41,0,0,0,0,.16h0a0.05,0.05,0,0,1,0,0l-0.16-.06-0.82-.29-0.15,0a0.12,0.12,0,0,0-.09,0,0.28,0.28,0,0,0,0,.22c0,0.08,0,.17,0,0.26l0.07,0.33c0.07,0.33.14,0.68,0.22,1s0.1,0.41.15,0.62l0.08,0.31L72.88,47a0,0,0,0,1,0,0l-0.95.16h0l-0.66.11a0.2,0.2,0,0,0-.17.09,0.22,0.22,0,0,0,0,.19,1.31,1.31,0,0,0,.16.23l0.44,0.54,0.64,0.77,0.19,0.22c0.19,0.23.39,0.47,0.6,0.68,0.5,0.52,1,1,1.49,1.48,0.22,0.22.46,0.44,0.72,0.67l-4.13,2.45-1.93,1.13-0.54.34-0.05,0-0.08,0h0l0,0-0.07,0-0.5.32a27.71,27.71,0,0,0-3.2,2.23l-0.6.51h0l-0.05.05L64,59.52h0l-0.15.14c-0.17.17-.3,0.31-0.43,0.45v0A7.57,7.57,0,0,0,62.13,62c0-.54,0-1.1,0-1.64l0-1.15C62,57.1,62,54,62,52.73c0-1,0-1.93,0-2.95V49.12c0-.37,0-0.75,0-1.12V47.15c0-.39,0-0.7,0-1q0-.17,0-0.34V45.72c0-.09,0-0.19,0-0.28V45.18l0-4.49L62.66,41c0.74,0.22,1.4.4,2,.56,0.33,0.08.68,0.14,1,.2l0.15,0L67.16,42,67.47,42l0.24,0h0A0.21,0.21,0,0,0,67.93,42a0.21,0.21,0,0,0,0-.2l-0.17-.43-0.1-.24-0.35-.93a0,0,0,0,1,0,0h0l0.13,0L67.71,40l0.37-.11,0.53-.16,0.79-.27,0.49-.17,0.24-.1a0.25,0.25,0,0,0,.17-0.15,0.26,0.26,0,0,0-.12-0.2l-0.43-.38-0.23-.2-0.08-.07,0,0v0h0l0.16-.06h0A10.21,10.21,0,0,0,71,37.28l0,0L71.32,37a0.77,0.77,0,0,0,.11-0.12l0,0a0.08,0.08,0,0,0,0-.07,0.1,0.1,0,0,0-.05-0.06l-0.13-.06L70,36.35l-0.11,0h0l0.05,0L70.34,36c0.29-.19.6-0.38,0.89-0.58a4.57,4.57,0,0,0,.48-0.4l0.15-.13,0.62-.54L72.89,34,73,33.91l0.11-.1A0.13,0.13,0,0,0,73,33.57a2.47,2.47,0,0,0-.44,0l-0.33,0H72l0.14-.3a3.36,3.36,0,0,1,.37-0.67,3.26,3.26,0,0,0,.42-0.76l0.14-.31a3.42,3.42,0,0,0,.29-0.72l0-.08a1.08,1.08,0,0,0,0-.15,0.82,0.82,0,0,0,0-.14v0h0a0.06,0.06,0,0,0-.06-0.05h0a8.37,8.37,0,0,1-1.26.63L71.8,31v0h0v0l0-.06,0.1-.34c0.07-.26.15-0.52,0.21-0.78A8.46,8.46,0,0,0,72.33,28a4.76,4.76,0,0,1,.15-1.15v0h0a0.1,0.1,0,0,0,0-.11H72.39a0.25,0.25,0,0,0-.13.05L71.78,27a10.45,10.45,0,0,0-1.35.91h0a0.29,0.29,0,0,1-.12,0,0,0,0,0,1-.05,0l-0.09-.35L70,27c-0.11-.36-0.19-0.65-0.28-0.92A0.23,0.23,0,0,0,69.62,26h0a0.17,0.17,0,0,0-.13.12,2.51,2.51,0,0,1-.39.57L69,26.74,68,27.9,67.93,28h0l0,0,0-.06a1.3,1.3,0,0,1-.07-0.2c0-.18-0.08-0.35-0.12-0.53L67.6,26.8a1.18,1.18,0,0,0,0-.14v0a0.12,0.12,0,0,0-.06-0.06v0l-0.05,0,0,0-0.06,0c-0.13.12-.26,0.25-0.39,0.4l-0.56.62-0.65.72-0.16.18-0.17.19-0.11.11h0a0.07,0.07,0,0,1,0,0c0-.68.09-1.2,0.13-1.69,0-.31.07-0.62,0.1-0.92l0-.42c0-.12,0-0.25,0-0.37s0.06-.48.07-0.72,0-.76,0-1.14V23.4a4.33,4.33,0,0,0,0-.61,0.13,0.13,0,0,0-.12-0.14,0.23,0.23,0,0,0-.12,0l-0.22.16L64.95,23l-0.72.48h0s0,0,0,0,0-.25,0-0.37c0-.29,0-0.58,0-0.87a8.59,8.59,0,0,0-.23-1.7,4.73,4.73,0,0,0-.22-0.7l0-.12v0a0.34,0.34,0,0,0-.21-0.25h0a0.57,0.57,0,0,0-.15.22h0v0l0,0.06L63,20c0,0.09-.26.53-0.37,0.81h0v0a0.67,0.67,0,0,1-.07.14h0v0h0A8,8,0,0,0,62,19.38c-0.14-.39-0.33-0.78-0.5-1.15S61.17,17.44,61,17l0,0a1.53,1.53,0,0,0-.08-0.2l0,0H60.77a0.1,0.1,0,0,0,0,0,1.16,1.16,0,0,0-.07.17l0,0.06c-0.13.4-.31,0.8-0.47,1.18s-0.33.76-.46,1.15A7.74,7.74,0,0,0,59.29,21v0h0a0.66,0.66,0,0,1-.08-0.14h0v0c-0.11-.26-0.35-0.71-0.41-0.82l-0.12-.23-0.05-.11v0a0.57,0.57,0,0,0-.16-0.22h0a0.33,0.33,0,0,0-.2.24l0,0.13a4.86,4.86,0,0,0-.21.73,8.32,8.32,0,0,0-.17,1.7c0,0.32,0,.64,0,1v0.28s0,0,0,0h0L56.92,23l-0.27-.19-0.17-.12a0.25,0.25,0,0,0-.13,0s-0.1,0-.11.14a4.33,4.33,0,0,0,0,.61v0.16c0,0.37,0,.75.06,1.12s0.06,0.5.1,0.75l0.05,0.34,0.08,0.57c0,0.25.08,0.52,0.11,0.77,0.06,0.46.11,0.92,0.16,1.37l0,0.32a0.06,0.06,0,0,1,0,0h0l-0.12-.11-0.12-.13-0.21-.24L55.06,27l-0.41-.4-0.08-.06,0,0h0a0.1,0.1,0,0,0-.07.07,1.56,1.56,0,0,0,0,.17l0,0.2c0,0.24-.09.49-0.13,0.73a1.23,1.23,0,0,1-.07.21l0,0,0,0h0L54,27.82l-1-1.17-0.06-.08A2.83,2.83,0,0,1,52.53,26a0.17,0.17,0,0,0-.13-0.12h0a0.22,0.22,0,0,0-.11.14c-0.08.31-.17,0.61-0.25,0.92s-0.1.39-.14,0.58l-0.08.33a0,0,0,0,1-.05,0,0.3,0.3,0,0,1-.12,0h0a11.14,11.14,0,0,0-1.39-.93l-0.48-.29a0.28,0.28,0,0,0-.14-0.06H49.54a0.1,0.1,0,0,0,0,.11v0.05a4.78,4.78,0,0,1,.19,1.15A8.6,8.6,0,0,0,50,29.68c0.07,0.27.16,0.54,0.24,0.79l0.1,0.33,0,0.1v0a0,0,0,0,1,0,0,8.74,8.74,0,0,1-1.55-.76h0a0.06,0.06,0,0,0-.05,0,0.08,0.08,0,0,0,0,0v0a0.62,0.62,0,0,0,0,.13,1.21,1.21,0,0,0,0,.18l0,0.06a3.44,3.44,0,0,0,.3.71l0.16,0.32a3.35,3.35,0,0,0,.45.77,3.59,3.59,0,0,1,.38.65l0.14,0.28h0l0,0H50l-0.33,0a2.47,2.47,0,0,0-.44,0,0.15,0.15,0,0,0-.14.08,0.16,0.16,0,0,0,.07.15l0.14,0.12,0.07,0.06,0.34,0.29,0.72,0.62,0.14,0.12a4.75,4.75,0,0,0,.52.42c0.3,0.21.61,0.4,0.91,0.6l0.38,0.24,0.07,0h0l-0.08,0H52.25l-1.19.33h0l-0.12.05a0.09,0.09,0,0,0-.05.06,0.08,0.08,0,0,0,0,.07L51,36.92l0.29,0.22,0,0a10.78,10.78,0,0,0,1.49.87L53,38.1h0l0,0-0.08.08-0.25.22-0.4.35a0.24,0.24,0,0,0-.12.2,0.27,0.27,0,0,0,.18.15l0.24,0.1,0.52,0.18,0.77,0.27,0.52,0.16L54.74,40l0.11,0,0.26,0.08a0,0,0,0,1,0,0L55,40.58,54.83,41l-0.1.28-0.14.39a0.17,0.17,0,0,0,.18.27h0L55,42l0.15,0,1.49-.24,0.17,0c0.32-.05.66-0.11,1-0.19,0.58-.15,1.21-0.32,2-0.54l0.86-.27v0.22c0.05,1.87.11,4,.14,6.13,0,1.36,0,2.78,0,4.15v1.12c0,0.81,0,1.64,0,2.46,0,0.61,0,2.59.07,4.14v0c0,0.43,0,.82,0,1.12v0.62c0,0.33,0,.67,0,1a9,9,0,0,0-1.18-1.57h0a5.78,5.78,0,0,0-.45-0.46l-0.16-.16-0.09-.08c-0.19-.17-0.41-0.36-0.72-0.6a29,29,0,0,0-3.27-2.27l-0.63-.4h0l-0.66-.42L52.68,55l0,0h0l-5-3c0.23-.2.45-0.41,0.67-0.63l0.11-.11c0.44-.44.9-0.89,1.34-1.35,0.21-.22.4-0.46,0.59-0.69L50.48,49l0.89-1.11,0.15-.18a1.34,1.34,0,0,0,.16-0.23,0.21,0.21,0,0,0,0-.19,0.22,0.22,0,0,0-.17-0.09l-0.67-.11h0L50.53,47l-0.66-.12a0,0,0,0,1,0-.05v0l0-.19,0-.16L50,46.23c0.05-.22.1-0.45,0.15-0.68s0.13-.7.19-1l0.05-.3c0-.08,0-0.16,0-0.24h0a0.29,0.29,0,0,0,0-.23,0.12,0.12,0,0,0-.09,0l-0.15,0L49.33,44l-0.16.05v0a1.06,1.06,0,0,0,0-.15,11,11,0,0,0,0-1.73c0-.13,0-0.27-0.06-0.4a1,1,0,0,0-.06-0.2A0.07,0.07,0,0,0,49,41.49H48.92l0,0-0.07.06-0.75.75-0.17.17-0.05.05,0,0h0a0.46,0.46,0,0,1,0-.09c0-.16,0-0.32,0-0.49,0-.35,0-0.7-0.07-1.05a5.26,5.26,0,0,0-.1-0.61l0-.23-0.27-1.37c0-.08,0-0.18-0.06-0.27a0.14,0.14,0,0,0-.12-0.14,0.17,0.17,0,0,0-.12.08,2.53,2.53,0,0,0-.24.36c-0.05.1-.1,0.2-0.14,0.29l-0.07.15,0,0.06h0l-0.06-.13v0L46.27,39a3.69,3.69,0,0,1-.39-0.66,3.34,3.34,0,0,0-.45-0.77l-0.21-.31a3.47,3.47,0,0,0-.46-0.6l0,0a1.07,1.07,0,0,0-.14-0.13l-0.16-.09h0a0.06,0.06,0,0,0-.06.08,9.33,9.33,0,0,1-.1,1.72h0l-0.08-.09-0.24-.26c-0.18-.2-0.38-0.4-0.57-0.6a9,9,0,0,0-1.42-1.11A4.77,4.77,0,0,1,41,35.41l0,0-0.08,0h0a0.23,0.23,0,0,0-.06.19h0c0,0.19,0,.37,0,0.55a11.36,11.36,0,0,0,.13,1.64h0s0,0.16-.07.16h0l-0.24-.07-0.66-.19-0.09,0L39,37.43H39a0.21,0.21,0,0,0-.12,0,0.15,0.15,0,0,0,0,.21,2.75,2.75,0,0,1,.29.61l0,0.13,0.17,0.46,0.36,1,0,0.12v0a0,0,0,0,1,0,0H39.68l-0.21,0-0.62-.21-0.28-.1-0.18,0h0a0.07,0.07,0,0,0-.08.06,0.64,0.64,0,0,0,0,.13c0,0.18.1,0.37,0.15,0.55,0.15,0.49.31,1,.46,1.46L39,42.1l0.07,0.22,0.08,0.25c0,0.05,0,.11,0,0.16s0,0,0,0l0,0L39,42.61l-1.18-.86L37,41.19l-0.34-.27-0.27-.21c-0.19-.15-0.39-0.31-0.6-0.45S35.25,39.87,35,39.7l-0.23-.14a5.2,5.2,0,0,0-.54-0.28l-0.09,0a0.1,0.1,0,0,0-.07,0,0.2,0.2,0,0,0,0,.15l0,0.16c0,0.13,0,.26,0,0.38s0,0.35,0,.53l0,0.36s0,0,0,0h0l-0.34-.17c-0.25-.13-0.51-0.26-0.76-0.4a8.32,8.32,0,0,0-1.56-.69,4.65,4.65,0,0,0-.71-0.17l-0.13,0H30.4a0.22,0.22,0,0,0-.17,0,0.09,0.09,0,0,0,0,.07,0.58,0.58,0,0,0,.12.25h0l0,0,0.21,0.32c0,0.07.33,0.51,0.51,0.75v0h0v0a0.73,0.73,0,0,1,.07.12v0h0l-0.09,0h0a7.62,7.62,0,0,0-1.52-.39c-0.41-.08-0.84-0.13-1.25-0.17s-0.83-.09-1.24-0.17l-0.26,0-0.07,0a0.08,0.08,0,0,0,0,.07h0a0.18,0.18,0,0,0,0,.06,1.51,1.51,0,0,0,.16.21c0.27,0.32.53,0.68,0.77,1s0.5,0.7.77,1l0,0a7.76,7.76,0,0,0,1.09,1.13l0,0,0,0H29.38c-0.29,0-.79-0.07-0.89-0.07H28.41l-0.29,0H28a0.36,0.36,0,0,0-.16,0h0v0c-0.05.06,0,.16,0.1,0.31L28,44.28a4.36,4.36,0,0,0,.51.54,8.3,8.3,0,0,0,1.36,1c0.26,0.15.51,0.32,0.76,0.49l0.29,0.19,0,0a0.06,0.06,0,0,1,0,0h0L30.13,47l-0.44.2,0,0a0.18,0.18,0,0,0-.12.13,0.17,0.17,0,0,0,.08.14,4.57,4.57,0,0,0,.51.34c0.43,0.25.78,0.44,1.12,0.61s0.5,0.23.75,0.33l0.26,0.11,0.46,0.2,0.78,0.33L34.87,50,35,50.11a0.06,0.06,0,0,1,0,0l0,0-0.07,0-0.09,0-0.48.11-1.76.39-0.33.09-0.21.06L32,50.91a0.05,0.05,0,0,0,0,0A0.13,0.13,0,0,0,32,51l0.13,0.13,0.28,0.25,0.43,0.39A1.77,1.77,0,0,1,33,52v0l0,0-0.11,0h0l-0.65.11-0.82.14-0.11,0a3.06,3.06,0,0,1-.56.07H30.56a0.12,0.12,0,0,0-.14.09,0.23,0.23,0,0,0,.07.17c0.21,0.23.43,0.46,0.66,0.69l0.45,0.45L31.77,54h0L31.82,54a0,0,0,0,1,0,0,0.21,0.21,0,0,1-.1.11h0a10.62,10.62,0,0,0-1.43.71l-0.49.27h0a0.2,0.2,0,0,0-.12.14,0.1,0.1,0,0,0,.08.1H29.8a5.17,5.17,0,0,1,1.07.43,8.37,8.37,0,0,0,1.65.7l0.8,0.21,0.33,0.08h0l0.12,0h0a8.78,8.78,0,0,1-1.4,1,0.07,0.07,0,0,0,0,.06,0.07,0.07,0,0,0,0,.06l0.15,0.09,0.14,0,0.09,0a3.32,3.32,0,0,0,.74.1l0.36,0,0.48,0a2.44,2.44,0,0,0,.4,0l0.29,0,0.44,0,0.37,0h0l0,0.08-0.09.14-0.17.27a2.82,2.82,0,0,0-.18.4,0.17,0.17,0,0,0,0,.16,0.1,0.1,0,0,0,.09,0h0.08l0.26-.08,0.65-.22,0.65-.22,0.23-.08a4.94,4.94,0,0,0,.55-0.21l0.83-.43,0.51-.27,0.06,0h0a1,1,0,0,1,0,.13l-0.16.64-0.15.64a1,1,0,0,0,0,.15,0.08,0.08,0,0,0,.08.09h0l0.19,0,0.29-.12,0.07,0A10.48,10.48,0,0,0,41,58.43l0.13-.09h0v0a1.23,1.23,0,0,1,0,.13l0.05,0.28c0,0.2.08,0.39,0.12,0.59a0.21,0.21,0,0,0,.15.21,0.33,0.33,0,0,0,.18-0.09l0.2-.16,0.2-.18,0.81-.72L43.39,58l0.22-.22,0.15-.15,0.12-.12h0.05l0.19,0.23,0.43,0.52,0.14,0.18L45,58.82a0.22,0.22,0,0,0,.16.11,0.2,0.2,0,0,0,.15-0.12,1.43,1.43,0,0,0,.11-0.25l0.1-.27c0.16-.43.32-0.87,0.47-1.3l0.1-.28c0.1-.27.2-0.56,0.28-0.84,0.18-.69.35-1.38,0.5-2,0.08-.32.14-0.64,0.2-1L47.26,53l1.19,0.67,1.31,0.73,0.19,0.11c1.87,1.06,3.8,2.15,5.61,3.4a26.46,26.46,0,0,1,2.67,2l0,0,0.43,0.41h0l0,0,0.05,0.06,0,0.05,0,0,0,0,0.07,0.09a8.34,8.34,0,0,1,1.81,2.85l0,0.1a4.08,4.08,0,0,1,.27,1.2v0.55h0v0.18c0,0.09,0,.18,0,0.27,0,0.5,0,1,0,1.48v0.15c0,0.23,0,.45,0,0.69s0,0.36,0,.55v0s0,0.08,0,.12v0c0,0.06,0,.13,0,0.19s0,0.1,0,.16v0.17c0,0.35,0,.62,0,0.89a0.76,0.76,0,0,0,0,.21l0,0v0H61.2a2.71,2.71,0,0,0,.44.09,8.6,8.6,0,0,0,1.26-.21H63V70.34a0.67,0.67,0,0,0-.11-0.44A2.38,2.38,0,0,1,62.5,69c0-.14,0-0.29,0-0.43V68.47c0-.11,0-0.22,0-0.33V68.06c0-.35-0.06-0.62-0.07-0.88a2.07,2.07,0,0,1,.18-1,0.71,0.71,0,0,0,.15-0.41h0l-0.21-.52-0.05-.12a1.15,1.15,0,0,1,0-.5,4.21,4.21,0,0,1,.22-1l0-.09a7.82,7.82,0,0,1,1.71-2.83h0l0,0,0,0,0,0,0-.06,0,0v0l0.06-.06h0L65,60l0,0a24.38,24.38,0,0,1,2.59-2c1.88-1.31,3.9-2.44,5.68-3.44l1.28-.72,1.26-.71c0.07,0.34.15,0.64,0.22,0.92,0.17,0.65.36,1.34,0.56,2,0.1,0.32.22,0.64,0.34,0.95L77,57.19c0.2,0.54.42,1.08,0.62,1.58a1.56,1.56,0,0,0,.12.25,0.21,0.21,0,0,0,.16.13,0.22,0.22,0,0,0,.16-0.1l0.21-.27,0.22-.28L79,57.86l0.09-.11h0l0,0h0v0.12l0-.08L79.46,58l0.23,0.22,0.46,0.44,0.78,0.69,0.26,0.23,0,0,0.18,0.14a0.33,0.33,0,0,0,.18.09,0.2,0.2,0,0,0,.14-0.21c0-.19.07-0.39,0.1-0.59l0-.28,0-.11v0h0L82,58.72a11.86,11.86,0,0,0,1.49.87l0.08,0,0.3,0.12,0.19,0h0a0.08,0.08,0,0,0,.08-0.09v0a1.07,1.07,0,0,0,0-.13l-0.23-.83-0.12-.45,0-.09v0h0l0,0,0.34,0.18c0.33,0.18.68,0.37,1,.53a4.54,4.54,0,0,0,.58.23L86,59.19l0.6,0.22,0.7,0.25,0.26,0.09h0.08a0.1,0.1,0,0,0,.09,0,0.17,0.17,0,0,0,0-.16,2.59,2.59,0,0,0-.19-0.4,3.44,3.44,0,0,0-.2-0.3l-0.08-.11,0,0v0h0l0.36,0,0.43,0,0.31,0,0.41,0,0.47,0,0.36,0a3.27,3.27,0,0,0,.73-0.09h0l0.18-.06a0.59,0.59,0,0,0,.14-0.08h0a0.06,0.06,0,0,0,0-.1h0a8.51,8.51,0,0,1-1-.66l-0.38-.33,0.11,0h0c0.36-.08.74-0.17,1.1-0.27a8,8,0,0,0,1.63-.68,4.59,4.59,0,0,1,1.06-.42l0,0a0.1,0.1,0,0,0,.07-0.09,0.21,0.21,0,0,0-.12-0.15h0l-0.51-.28a11.2,11.2,0,0,0-1.46-.73h0a0.24,0.24,0,0,1-.11-0.12,0,0,0,0,1,0,0l0.31-.31,0.35-.35c0.19-.2.39-0.41,0.64-0.68a0.23,0.23,0,0,0,.06-0.17,0.12,0.12,0,0,0-.13-0.09H92.2a3.19,3.19,0,0,1-.57-0.07l-0.12,0L90,52.48l-0.11,0h0v0l0,0A1.27,1.27,0,0,1,90,52.19l0.37-.34,0.32-.29,0.09-.09,0,0h0a0.08,0.08,0,0,0,0-.11l-0.12-.06h0l-0.52-.14-1.77-.42-0.48-.11-0.16,0,0,0a0.07,0.07,0,0,1,0,0l0.58-.26,0.93-.43,0.91-.38,0.32-.13,0.36-.15c0.21-.08.42-0.17,0.63-0.27,0.38-.19.74-0.39,1.11-0.6a4.11,4.11,0,0,0,.49-0.33,0.16,0.16,0,0,0,.08-0.13,0.2,0.2,0,0,0-.12-0.13l-0.23-.11-0.26-.12L91.81,47a0.06,0.06,0,0,1,0,0l0,0L92,46.81c0.26-.18.53-0.36,0.8-0.51a8.15,8.15,0,0,0,1.33-1,4.64,4.64,0,0,0,.5-0.55l0.06-.08h0a0.42,0.42,0,0,0,.12-0.28,0.1,0.1,0,0,0-.05-0.07,0.34,0.34,0,0,0-.16,0H94.14c-0.1,0-.6,0-0.89.06h-0.2l0.08-.06h0a7.6,7.6,0,0,0,1.07-1.13c0.26-.32.5-0.66,0.73-1s0.48-.7.75-1a1.73,1.73,0,0,0,.15-0.2,0.09,0.09,0,0,0,0,0v0h0A0.09,0.09,0,0,0,95.8,40.76Zm-64.61.33h0Zm1.86,11h0ZM44.25,38.25h0Zm2.81,14.59h0l0,0.08V52.84ZM61.82,40.67v1l0-1h0ZM61.07,61.48c0,0.1,0,.21,0,0.31V61.48ZM82.73,40.31h0Zm8.91,1.11-0.21.09h0Zm-15.54-2,0,0.06h0Zm-0.8,12.67,0.07,0.06h0Zm-13.07,9.7a2.9,2.9,0,0,0-.11.28v0Zm1.18-42.38h0ZM50.22,33.36l0,0h0Zm10.39,7.29,0.08,0h0ZM48.81,52.73L47.56,52h0ZM29.38,43.67l0.21,0.16h0Zm6.36,14.61h0.1v0H35.74Zm40-5.14,0.12-.07h0Z"/><path class="c" d="M54.65,33.27h0a0.14,0.14,0,0,0,.11-0.11,0.48,0.48,0,0,0-.19-0.4L54,32.2,54,32.11l-0.45-.4-0.36-.35L52.63,31l-0.28-.24a0.6,0.6,0,0,0-.25-0.16h0l0,0a0.28,0.28,0,0,0,0,.21v0h0a2.33,2.33,0,0,0,.49.69L53,31.91l0.76,0.72h0l0.51,0.45A0.58,0.58,0,0,0,54.65,33.27Zm-2.59-2.68h0Z"/><path class="c" d="M57.16,36.28l0.13,0,0,0a0.14,0.14,0,0,0,.06-0.15,0.47,0.47,0,0,0-.32-0.3l-0.81-.34,0,0-0.56-.21L55.22,35l-0.61-.19-0.35-.12A0.86,0.86,0,0,0,54,34.66a0.09,0.09,0,0,0-.08,0s0,0.08.11,0.2h0a2.4,2.4,0,0,0,.71.47L56.25,36l0.64,0.24A0.86,0.86,0,0,0,57.16,36.28Z"/><path class="c" d="M67.85,34.74a0.85,0.85,0,0,0-.24.06l-0.34.11-0.59.18h0l-0.45.18-0.55.2-0.08,0-0.75.31a0.43,0.43,0,0,0-.31.3,0.14,0.14,0,0,0,.07.15l0,0,0.14,0h0.06l0.14,0H65l0.46-.17L65.66,36l1.46-.59A2.26,2.26,0,0,0,67.82,35h0c0.12-.11.12-0.17,0.11-0.2A0.09,0.09,0,0,0,67.85,34.74Zm-3.3,1.5,0.06,0h0Z"/><path class="c" d="M64.32,34.71l1-.93s0.42-.35.66-0.6h0l0,0h0l0,0c0.1-.11.43-0.47,0.55-0.62a3.16,3.16,0,0,0,.24-0.36A0.7,0.7,0,0,0,67,31.56h0l-0.1,0h0l-0.35.26,0,0h0l-0.3.27h0l0,0,0,0-0.18.17h0l-0.1.09-0.3.27-0.18.17L63,35.1l-0.21.19s-0.5.4-.28,0.69a0.18,0.18,0,0,0,.15.07,1.13,1.13,0,0,0,.65-0.38h0c0.13-.12.82-0.74,1-0.93ZM67,31.82a0.25,0.25,0,0,0,0-.26h0A0.25,0.25,0,0,1,67,31.82Z"/><path class="c" d="M62,26.83a0.3,0.3,0,0,0,.15-0.07l0,0a2.26,2.26,0,0,0,.37-0.32h0a3.84,3.84,0,0,0,.27-0.32h0L62.93,26,63,25.83a0.59,0.59,0,0,0,.11-0.36,0.18,0.18,0,0,0,0,0,0.13,0.13,0,0,0-.11-0.1h0a0.42,0.42,0,0,0-.31.21l0,0.07-0.12.16h0l0,0.05-0.25.41v0l-0.17.27a0.33,0.33,0,0,0-.09.29A0.06,0.06,0,0,0,62,26.83Zm1.13-1.28v0Zm0-.05s0,0,0,0h0S63.15,25.48,63.15,25.49Z"/><path class="c" d="M63.4,32.36h0l0,0L63,32.74h0l-0.2.21a0.31,0.31,0,0,0-.14.25,0.07,0.07,0,0,0,.07,0l0.13,0,0,0a2.13,2.13,0,0,0,.4-0.21h0a3.46,3.46,0,0,0,.31-0.24h0l0.07-.07,0.14-.13A0.53,0.53,0,0,0,64,32.22a0.16,0.16,0,0,0,0,0,0.13,0.13,0,0,0-.09-0.12H63.87a0.45,0.45,0,0,0-.28.13h0l0,0ZM64,32.24v0h0v0Zm0,0.05h0Z"/><path class="c" d="M65.68,37.66l-0.1,0-0.23-.06-0.08,0-0.59-.1-0.37-.06a1,1,0,0,0-.21,0,0.15,0.15,0,0,0-.14.05,0.06,0.06,0,0,0,0,0,0.3,0.3,0,0,0,.15.16l0.06,0a2.79,2.79,0,0,0,.52.27h0a4.39,4.39,0,0,0,.49.16h0l0.11,0,0.24,0.05,0.19,0A0.53,0.53,0,0,0,66,38.12l0,0a0.14,0.14,0,0,0,0-.16A0.5,0.5,0,0,0,65.68,37.66ZM64,37.38a0.12,0.12,0,0,0,0,.05,0.07,0.07,0,0,1,0,0Z"/><path class="c" d="M58.26,37.39h-0.1a2.45,2.45,0,0,0-.51.08h0a4,4,0,0,0-.43.15h0l-0.09,0-0.2.09a0.6,0.6,0,0,0-.3.27,0.18,0.18,0,0,0,0,0,0.14,0.14,0,0,0,.05.15,0.29,0.29,0,0,0,.17.05,0.69,0.69,0,0,0,.25-0.06l0.08,0,0.19-.08h0l0.07,0,0.46-.23h0l0.3-.16a0.35,0.35,0,0,0,.24-0.21,0.06,0.06,0,0,0,0,0A0.22,0.22,0,0,0,58.26,37.39Zm0.08,0.19a0.16,0.16,0,0,0,.07-0.14v0A0.15,0.15,0,0,1,58.34,37.58Z"/><path class="c" d="M56.75,31.53l0.1,0.13h0l0,0L57.16,32l0.17,0.19a0.36,0.36,0,0,0,.19.15h0l0,0a0.22,0.22,0,0,0,0-.15l0,0a1.92,1.92,0,0,0-.17-0.36h0a3.19,3.19,0,0,0-.19-0.29h0l-0.05-.06L57,31.28a0.49,0.49,0,0,0-.26-0.18h0a0.11,0.11,0,0,0-.1.07,0.35,0.35,0,0,0,.09.32Zm0.79,0.81h0Zm-0.77-1.24h0Zm0,0h0Z"/><path class="c" d="M59.62,35.65l-0.2-.16h0l-2.38-2-0.12-.1-0.61-.52a5,5,0,0,0-.45-0.36l-0.13-.09a0.44,0.44,0,0,0-.22-0.12h0a0.28,0.28,0,0,0,0,.31,2.15,2.15,0,0,0,.12.21,2.53,2.53,0,0,0,.29.37h0l0.43,0.44h0a9.35,9.35,0,0,0,.8.68c0.11,0.09,1,.85,1,0.86,0.21,0.19,1,.84,1,0.85a1.14,1.14,0,0,0,.61.34,0.16,0.16,0,0,0,.15-0.07C60.1,36,59.67,35.69,59.62,35.65Zm-4-3.34-0.1,0h0Z"/><path class="c" d="M69.76,30.91H69.69a0.55,0.55,0,0,0-.34.16l-0.55.5-0.12.11-0.42.41s-0.26.23-.37,0.33l-0.08.09-0.34.38-0.25.26a0.32,0.32,0,0,0-.16.28,0.07,0.07,0,0,0,.07,0h0.08l0.07,0h0A2.37,2.37,0,0,0,68,33l1.16-1.07,0.48-.47a0.61,0.61,0,0,0,.2-0.35,0.26,0.26,0,0,0,0,0A0.16,0.16,0,0,0,69.76,30.91Zm-2.65,2.53h0ZM69.43,31l0,0Zm0.14-.08,0.07,0Zm0.23,0.26a0.54,0.54,0,0,0,0-.14,0.16,0.16,0,0,1,0,0A0.43,0.43,0,0,1,69.81,31.19Z"/><path class="c" d="M62.14,36.81a0.32,0.32,0,0,0-.16.06h0a2.46,2.46,0,0,0-.45.34h0V37.17h0c0-.11,0-0.37,0-0.48s0-.28,0-0.46l0-.39c0-.09,0-0.41,0-1V34.33l0-1.68a0.87,0.87,0,0,1,.11-0.52l0.28-.32L62,31.57l0,0,0.91-1.05,0.13-.15a2.33,2.33,0,0,0,.41-0.74h0c0.06-.16,0-0.21,0-0.23h0a0.5,0.5,0,0,0-.24.18l-0.26.26-0.46.43c-0.1.1-.32,0.37-0.32,0.37l-0.4.43,0,0-0.34.4h0c-0.08-2.91-.14-4.63-0.18-5.41l0-1.17c0-.21,0-0.67,0-0.8v0l0-.6s0-.36,0-0.5S61,22.51,61,22.35L61,22a0.35,0.35,0,0,0-.1-0.31h0l0,0a0.35,0.35,0,0,0-.08.15h0a2.53,2.53,0,0,0-.14.84s0,1.45,0,1.61c0,0,0,.08,0,0.18v1.26h0c0,0.33,0,1,.06,1.78a0.18,0.18,0,0,1,0,.05h0l0,0L60.27,27l-0.18-.25s-0.2-.3-0.29-0.41l-0.42-.49-0.23-.29a0.49,0.49,0,0,0-.23-0.21h0s0,0.09,0,.22h0a2.51,2.51,0,0,0,.34.79l0.06,0.09,0.87,1.24,0,0h0l0.53,0.7a0.18,0.18,0,0,1,0,.09l0,1.27v0.4c0,0.51,0,1,0,1.52v0l0,0-0.47-.51,0,0L60,30.83l-0.54-.51-0.3-.3a0.64,0.64,0,0,0-.28-0.21h0s0,0.08,0,.25h0a2.75,2.75,0,0,0,.5.85l1.24,1.39,0.13,0.13a1,1,0,0,1,.21.51v0.15l0,0.49v0.07l0,0.62c0,0.13,0,.25,0,0.37l0,0,0,0,0,0h0a2.51,2.51,0,0,0-.47-0.35h0a0.33,0.33,0,0,0-.16-0.06,0.07,0.07,0,0,0-.05,0,0.35,0.35,0,0,0,.12.31l0.2,0.28s0.26,0.38.32,0.44l0.05,0.06h0l0,0L61,35.43h0L61,37c0,0.1,0,.2,0,0.3v0.25c0,0.18,0,.33,0,0.38V38c0,0.16,0,.55,0,0.61a0.92,0.92,0,0,0,0,.13v0.1a1.3,1.3,0,0,0,.1.25l0,0.05,0,0a0.13,0.13,0,0,0,.08,0h0a0.18,0.18,0,0,0,.13-0.16V39h0a2.34,2.34,0,0,0,0-.34h0c0-.05,0-0.14,0-0.27s0-.29,0-0.39a0.21,0.21,0,0,1,0-.1h0l0-.06,0.3-.42h0l0.19-.28a0.33,0.33,0,0,0,.11-0.3A0.07,0.07,0,0,0,62.14,36.81Zm1.36-7.37a0.08,0.08,0,0,0,0-.05h0A0.06,0.06,0,0,1,63.5,29.44Zm-2.58-7.7v0Zm0,0h0ZM59,25.44a0.21,0.21,0,0,0-.12-0.06h0A0.19,0.19,0,0,1,59,25.44Zm-0.14-.05a0.07,0.07,0,0,0,0,0A0.06,0.06,0,0,1,58.89,25.39Zm0,0.12h0ZM59,29.9a0.31,0.31,0,0,0-.17-0.08h0A0.28,0.28,0,0,1,59,29.9Z"/><path class="c" d="M78.84,43h0A0.14,0.14,0,0,0,79,43h0a0.45,0.45,0,0,0,.25-0.35l0.23-.89,0.13-.58h0c0.08-.28.11-0.41,0.12-0.47l0.09-.63,0.07-.36a0.63,0.63,0,0,0,0-.3l0,0h0a0.26,0.26,0,0,0-.15.14h0l-0.07.11-0.1.17-0.1.2-0.06.18s0,0.06,0,.09l-0.11.43-0.28,1.13,0,0.08-0.12.59a0.59,0.59,0,0,0,0,.41Zm1-3.55h0Z"/><path class="c" d="M77.12,44.57l0.13,1,0.11,0.68a0.89,0.89,0,0,0,.09.27,0.39,0.39,0,0,0,.08.11l0,0,0.07,0a0.15,0.15,0,0,0,.09,0,0.46,0.46,0,0,0,.11-0.42c0-.07,0-0.39-0.1-0.89v0l-0.09-.59c0-.06,0-0.37-0.06-0.5h0c0-.14-0.11-0.49-0.13-0.62l-0.07-.37A0.88,0.88,0,0,0,77.29,43a0.09,0.09,0,0,0-.07-0.06h0s-0.08,0-.11.19h0A2.37,2.37,0,0,0,77,44Z"/><path class="c" d="M83.9,55.17l-0.27-.26-0.45-.45h0l-0.38-.32-0.45-.4-0.71-.58A0.58,0.58,0,0,0,81.29,53H81.21a0.14,0.14,0,0,0-.09.13,0.22,0.22,0,0,0,0,0,0.42,0.42,0,0,0,0,.13,0.91,0.91,0,0,0,.18.22l0.37,0.33L81.86,54l1.24,1a2.39,2.39,0,0,0,.75.41h0l0.15,0a0.07,0.07,0,0,0,.07,0,0.09,0.09,0,0,0,0-.09A0.89,0.89,0,0,0,83.9,55.17ZM81.33,53l0.06,0Zm0.18,0.07,0,0ZM84,55.46h0ZM81.14,53.1a0.21,0.21,0,0,0,0,.07v0A0.12,0.12,0,0,1,81.14,53.1Z"/><path class="c" d="M80.55,51h0Z"/><path class="c" d="M80.4,51.1l0,0Z"/><path class="c" d="M85.86,53.28H86a0.51,0.51,0,0,0,.47-0.14,0.06,0.06,0,0,0,0,0A0.21,0.21,0,0,0,86.33,53h0l-0.39-.19,0,0h0l-0.39-.15h0L85.3,52.6l-0.14,0-0.51-.19-3.3-1.17-0.27-.1a1.29,1.29,0,0,0-.43-0.1l-0.08,0h0L80.5,51l0.05,0a0.29,0.29,0,0,0-.13.06h0l-0.06.07,0,0a0.23,0.23,0,0,0,0,.05,0.18,0.18,0,0,0,0,.16,1.2,1.2,0,0,0,.65.4h0c0.38,0.14,1.06.39,1.28,0.46l0.06,0,1.28,0.46s0.51,0.21.84,0.32h0l0.06,0h0c0.06,0,.61.17,0.81,0.2A3.32,3.32,0,0,0,85.86,53.28Zm0.39,0a0.19,0.19,0,0,0,.16-0.13,0.05,0.05,0,0,1,0,0A0.19,0.19,0,0,1,86.24,53.25Z"/><path class="c" d="M89.88,46.77a0.45,0.45,0,0,0-.34-0.18H89.46l-0.2,0H89.19l-0.47,0h0l-0.32,0H88.24a0.17,0.17,0,0,0-.17.06,0.06,0.06,0,0,0,0,.06,0.34,0.34,0,0,0,.13.11l0.05,0a2.36,2.36,0,0,0,.46.19h0a4,4,0,0,0,.41.09h0.11l0.2,0h0.09A0.5,0.5,0,0,0,89.83,47l0,0a0.13,0.13,0,0,0,0-.15v0ZM89.82,47l-0.05,0,0.07,0h0Z"/><path class="c" d="M83,50.26a2.24,2.24,0,0,0,.38.26h0a3.69,3.69,0,0,0,.36.16h0l0.09,0L84,50.79a0.75,0.75,0,0,0,.22,0l0.14,0,0,0a0.12,0.12,0,0,0,.06-0.13l0-.06a0.48,0.48,0,0,0-.26-0.19h0l-0.06,0-0.17-.06h0l-0.06,0-0.46-.14-0.29-.08a0.63,0.63,0,0,0-.2,0,0.1,0.1,0,0,0-.09,0,0.07,0.07,0,0,0,0,.08,0.4,0.4,0,0,0,.09.1Zm1.38,0.53h0Z"/><path class="c" d="M80.44,54.65l-0.06-.23h0l0-.08c0-.09-0.2-0.57-0.2-0.58L80,53.4h0a1,1,0,0,0-.08-0.2,0.16,0.16,0,0,0-.11-0.1h0a0.3,0.3,0,0,0-.06.2v0.07a2.79,2.79,0,0,0,0,.59v0h0a4.6,4.6,0,0,0,.1.5h0l0,0.11c0,0.06,0,.18.07,0.24A1.08,1.08,0,0,0,80,55a0.56,0.56,0,0,0,.17.2l0,0h0.06a0.14,0.14,0,0,0,.1,0,0.49,0.49,0,0,0,0-.46Zm-0.56-1.52-0.06,0h0Z"/><path class="c" d="M77.05,48.21a0,0,0,0,0,0,0A0.23,0.23,0,0,0,77,48l0,0,0-.05a2.6,2.6,0,0,0-.33-0.42h0a4.14,4.14,0,0,0-.34-0.31h0l-0.09-.06L76,47a0.65,0.65,0,0,0-.37-0.15H75.61a0.13,0.13,0,0,0-.1.11,0.29,0.29,0,0,0,0,.17,0.73,0.73,0,0,0,.17.2l0.07,0.06L76,47.53h0l0.06,0,0.45,0.31,0.28,0.2a0.54,0.54,0,0,0,.25.13h0Zm0,0h0Z"/><path class="c" d="M81,45.09h0A0.21,0.21,0,0,0,81.21,45l0,0a1.87,1.87,0,0,0,.23-0.31h0a3.14,3.14,0,0,0,.15-0.3h0l0-.08,0.06-.15a0.48,0.48,0,0,0,0-.31v0h0a0.11,0.11,0,0,0-.1-0.06h0a0.33,0.33,0,0,0-.23.23l0,0.06-0.06.14h0l0,0c0,0.06-.13.38-0.13,0.39l-0.08.24a0.35,0.35,0,0,0,0,.23v0Zm0,0h0Zm0.7-1.25a0.51,0.51,0,0,1,0,.06,0.45,0.45,0,0,0,0-.08v0Z"/><path class="c" d="M78.68,48.91a0.17,0.17,0,0,0,.13.1h0a0.65,0.65,0,0,0,.37-0.57,2.16,2.16,0,0,1,0-.25h0c0-.25.62-3.17,0.63-3.2,0.06-.35.14-0.78,0.14-0.78a5.08,5.08,0,0,0,.09-0.57V43.49a0.45,0.45,0,0,0,0-.25,0.06,0.06,0,0,0,0,0h0a0.34,0.34,0,0,0-.22.18,2.34,2.34,0,0,0-.12.2,2.46,2.46,0,0,0-.18.43c0,0.12-.18.6-0.18,0.6a9.14,9.14,0,0,0-.2,1c0,0.12-.17.93-0.24,1.27v0c-0.06.27-.24,1.27-0.24,1.27a1.14,1.14,0,0,0,0,.7h0Zm1.43-5.67,0,0h0Z"/><path class="c" d="M88,55l-0.86-.32-0.57-.18s-0.33-.13-0.47-0.17H86.07l-0.56-.15-0.35-.1A0.79,0.79,0,0,0,84.93,54a0.1,0.1,0,0,0-.1,0,0.07,0.07,0,0,0,0,.07,0.48,0.48,0,0,0,.11.12h0a2.54,2.54,0,0,0,.73.45l0.2,0.07,1.31,0.48h0l0.61,0.2a0.84,0.84,0,0,0,.25,0h0.16l0,0h0a0.15,0.15,0,0,0,.06-0.15A0.48,0.48,0,0,0,88,55Zm0.23,0.45h0Z"/><path class="c" d="M92,43.18a0.11,0.11,0,0,0-.11,0H91.76a2.47,2.47,0,0,0-.8.25l-1.38.78-0.15.09-1.09.59h0l-1.52.86,0,0v0L87,45.09l0.13-.27h0l0.21-.44h0l0.22-.58,0.14-.34a0.47,0.47,0,0,0,.07-0.3l0,0h0a0.31,0.31,0,0,0-.17.1h0a2.36,2.36,0,0,0-.51.66l-0.69,1.43,0,0h0L86,46.16a0.17,0.17,0,0,1-.07.07l-1.08.61-1.64.93h0v0l0.21-.65s0.13-.38.18-0.53,0.13-.54.18-0.72l0.11-.41a0.61,0.61,0,0,0,0-.34l0,0h0a0.32,0.32,0,0,0-.18.14h0a2.61,2.61,0,0,0-.5.83l-0.06.19-0.53,1.55h0l-0.06.17a0.89,0.89,0,0,1-.34.42l-0.54.31L81.06,49l-0.34.18V49.06a2.47,2.47,0,0,0,.07-0.57h0a0.34,0.34,0,0,0,0-.17,0.07,0.07,0,0,0,0,0h0a0.38,0.38,0,0,0-.19.25l-0.14.3s-0.2.4-.23,0.48l0,0.07h0l0,0.06-0.05.11h0l-1.36.78,0,0-0.3.15-0.24.13-0.22.11-0.06,0-0.53.3-0.11.07h0l0,0,0,0a1.13,1.13,0,0,0-.17.2l0,0.05v0a0.13,0.13,0,0,0,0,.09v0a0.14,0.14,0,0,0,.12.05h0.16a2.36,2.36,0,0,0,.31-0.13l0.16-.08,0.08,0,0.06,0,0.28-.14a0.21,0.21,0,0,1,.09,0h0l0.07,0,0.52,0.07h0l0.34,0,0.17,0a0.13,0.13,0,0,0,.14-0.06,0.07,0.07,0,0,0,0-.06,0.34,0.34,0,0,0-.13-0.11h0a2.59,2.59,0,0,0-.52-0.25h0l0,0,0.42-.23h0l0.38-.21,0.33-.2,0.61-.34,0.27-.15,0.19-.1,1.65-.92a1,1,0,0,1,.45-0.14h0.05l0.39,0.1h0L84,48.72,85.31,49l0.21,0.05a2,2,0,0,0,.47.06l0.37,0h0c0.17,0,.2-0.06.2-0.1a0.07,0.07,0,0,0,0,0,0.53,0.53,0,0,0-.27-0.13l-0.35-.11-0.57-.2h0l-0.48-.11h0l-0.58-.16H84.22l-0.51-.12h0l0,0c2.49-1.39,4-2.23,4.62-2.63l1-.56L90,44.56l0.06,0,0.51-.29L90.95,44l0,0,0.49-.34,0.31-.2A0.31,0.31,0,0,0,92,43.2v0Zm-8.18,1.88h0Zm4-1.92,0,0h0Zm-3.91,1.94,0,0h0Zm-7,6.51s0,0,0,0a0.16,0.16,0,0,0,0,0h0Zm9.6-2.52a0.08,0.08,0,0,0,0-.06v0A0.06,0.06,0,0,1,86.53,49.07ZM92,43.23a0.1,0.1,0,0,0,0,0h0A0.06,0.06,0,0,1,92,43.23Zm0,0.05v0Z"/><path class="c" d="M42.78,39.91l0.11,0.63C42.92,40.68,43,41,43,41l0.15,0.58,0.06,0.19,0.2,0.69a0.48,0.48,0,0,0,.27.36h0a0.13,0.13,0,0,0,.11-0.05h0l0,0a0.58,0.58,0,0,0,0-.41l-0.14-.59,0-.08-0.44-1.56a2.33,2.33,0,0,0-.38-0.76h0a0.29,0.29,0,0,0-.16-0.14h0l0,0a0.62,0.62,0,0,0,0,.3Zm1.07,2.89h0l0,0h0ZM42.7,39.23h0Z"/><path class="c" d="M45.19,46.55l0.07,0,0,0a0.36,0.36,0,0,0,.08-0.11,0.86,0.86,0,0,0,.08-0.27l0.08-.64v0l0.15-1.6A2.41,2.41,0,0,0,45.61,43h0c0-.16-0.09-0.19-0.12-0.19h0a0.09,0.09,0,0,0-.07.06,0.85,0.85,0,0,0-.06.25l-0.06.36c0,0.06,0,.22-0.11.6v0c0,0.14,0,.49,0,0.5l-0.07.59v0C45,45.7,45,46,45,46.09a0.48,0.48,0,0,0,.12.43A0.16,0.16,0,0,0,45.19,46.55Z"/><path class="c" d="M41.84,52.83H41.75a0.55,0.55,0,0,0-.33.15l-0.63.52-0.07.05-0.44.4-0.37.31-0.44.45L39.21,55a0.81,0.81,0,0,0-.17.19,0.09,0.09,0,0,0,0,.09,0.08,0.08,0,0,0,.07,0h0.08l0.07,0h0a2.25,2.25,0,0,0,.73-0.4l1.21-1,0.5-.46a0.85,0.85,0,0,0,.17-0.22,0.42,0.42,0,0,0,0-.13,0.23,0.23,0,0,0,0,0A0.14,0.14,0,0,0,41.84,52.83Zm-0.32.08,0,0Zm0.14-.07h0Z"/><path class="c" d="M42.63,51a0.26,0.26,0,0,0-.05-0.05l0,0-0.06-.07h0a0.3,0.3,0,0,0-.13-0.06l0.05,0-0.12,0h0l-0.08,0a1.23,1.23,0,0,0-.43.1l-0.26.1-3,1.06-0.22.08-0.5.18-0.29.11h0l-0.38.14h0l0,0-0.39.19h0a0.2,0.2,0,0,0-.08.07,0.06,0.06,0,0,0,0,0,0.52,0.52,0,0,0,.47.14h0.1A3.25,3.25,0,0,0,37.62,53c0.2,0,.75-0.18.81-0.19h0l0.06,0h0c0.33-.1.83-0.31,0.83-0.31S40.67,52,40.68,52c0.22-.07.89-0.31,1.27-0.45h0a1.13,1.13,0,0,0,.64-0.39A0.18,0.18,0,0,0,42.63,51Zm-6,1.88,0,0a0,0,0,0,1,0,0h0Z"/><path class="c" d="M42.4,50.83h0Z"/><path class="c" d="M42.55,50.9l0,0Z"/><path class="c" d="M34.75,46.31a0.06,0.06,0,0,0,0-.06,0.18,0.18,0,0,0-.17-0.06H34.45l-0.32,0-0.51,0H33.56l-0.2,0H33.28a0.42,0.42,0,0,0-.33.18h0v0a0.13,0.13,0,0,0,0,.15l0,0a0.52,0.52,0,0,0,.29.07h0.09l0.2,0H33.7a3.78,3.78,0,0,0,.4-0.09h0a2.3,2.3,0,0,0,.45-0.18l0,0A0.31,0.31,0,0,0,34.75,46.31ZM33,46.46l0,0h0Zm0,0.15v0Zm0,0,0,0h0v0Z"/><path class="c" d="M38.6,50.58l0.14,0a0.73,0.73,0,0,0,.22,0l0.18-.06,0.09,0h0a3.81,3.81,0,0,0,.35-0.16h0A2.12,2.12,0,0,0,40,50.05l0,0a0.38,0.38,0,0,0,.09-0.1,0.07,0.07,0,0,0,0-.08,0.11,0.11,0,0,0-.09,0,0.62,0.62,0,0,0-.2,0l-0.28.08h0l-0.43.12-0.06,0h0l-0.17.06-0.07,0a0.45,0.45,0,0,0-.25.19,0.21,0.21,0,0,0,0,.06,0.13,0.13,0,0,0,.06.13Zm0,0h0Z"/><path class="c" d="M43.33,53.15a0.31,0.31,0,0,0-.07-0.2h0a0.15,0.15,0,0,0-.11.1,1,1,0,0,0-.07.2l-0.12.36v0c-0.13.39-.17,0.52-0.18,0.56l0,0.08h0l-0.06.23h0l0,0.08a0.5,0.5,0,0,0,.06.47,0.15,0.15,0,0,0,.1,0h0.06l0,0a0.53,0.53,0,0,0,.16-0.2,1,1,0,0,0,.07-0.18c0-.06,0-0.18.06-0.24l0-.11h0a4.43,4.43,0,0,0,.09-0.5v0a2.84,2.84,0,0,0,0-.58V53.15Zm0-.14a0.16,0.16,0,0,0-.06-0.06h0A0.14,0.14,0,0,1,43.28,53Z"/><path class="c" d="M47.22,46.73H47.16a0.62,0.62,0,0,0-.36.14L46.63,47l-0.08.06h0a4.12,4.12,0,0,0-.33.31h0a2.41,2.41,0,0,0-.31.41l0,0,0,0a0.23,0.23,0,0,0,0,.15l0,0h0a0.51,0.51,0,0,0,.25-0.13l0.28-.19h0l0.43-.31,0.06,0h0l0.16-.13,0.07-.05A0.68,0.68,0,0,0,47.3,47a0.28,0.28,0,0,0,0-.17A0.14,0.14,0,0,0,47.22,46.73ZM45.82,48a0.11,0.11,0,0,1,0,0,0.14,0.14,0,0,0,0,.06v0Z"/><path class="c" d="M41.08,44.09l0,0.08h0a3.16,3.16,0,0,0,.17.3h0a2,2,0,0,0,.25.31l0,0a0.22,0.22,0,0,0,.13.08h0v0a0.36,0.36,0,0,0,0-.24l-0.09-.24s-0.12-.33-0.15-0.39l0-.05h0l-0.07-.14V43.76a0.35,0.35,0,0,0-.24-0.23h0a0.11,0.11,0,0,0-.1.06h0v0a0.49,0.49,0,0,0,0,.31Zm0.63,0.81h0ZM41,43.6h0Z"/><path class="c" d="M42.61,43.46a5,5,0,0,0,.11.57h0c0,0.14.11,0.48,0.17,0.78,0,0,.69,3,0.74,3.2a2.58,2.58,0,0,1,.05.26,0.69,0.69,0,0,0,.39.57h0a0.16,0.16,0,0,0,.13-0.1,1.14,1.14,0,0,0,0-.7h0c0-.17-0.22-1-0.28-1.27,0,0-.27-1.15-0.29-1.3h0a8.94,8.94,0,0,0-.23-1s-0.16-.48-0.2-0.6h0A2.52,2.52,0,0,0,43,43.41a2.22,2.22,0,0,0-.13-0.2A0.36,0.36,0,0,0,42.65,43h0a0.06,0.06,0,0,0,0,0,0.44,0.44,0,0,0,0,.25Zm0-.42h0l0,0h0Z"/><path class="c" d="M38.15,53.79a0.77,0.77,0,0,0-.23.05l-0.35.1L37,54.08,37,54.1l-0.46.17h0l-0.56.18-0.85.31a0.46,0.46,0,0,0-.32.29,0.15,0.15,0,0,0,.06.15h0l0,0a0.42,0.42,0,0,0,.16,0,0.81,0.81,0,0,0,.25,0L35.92,55l1.49-.53A2.39,2.39,0,0,0,38.12,54h0a0.46,0.46,0,0,0,.11-0.12,0.07,0.07,0,0,0,0-.07A0.1,0.1,0,0,0,38.15,53.79Zm-3.31,1.4h0l0,0h0Z"/><path class="c" d="M46.07,51.33l0-.05a1.24,1.24,0,0,0-.17-0.2h0l0,0,0,0h0l-0.11-.07-0.6-.34-0.47-.25-0.13-.07-0.22-.11-0.85-.49-0.55-.32h0l-0.06-.15,0-.07c0-.08-0.24-0.48-0.24-0.49l-0.16-.31a0.4,0.4,0,0,0-.2-0.25h0a0.07,0.07,0,0,0,0,0,0.33,0.33,0,0,0,0,.17h0a2.56,2.56,0,0,0,.09.57v0.06h0v0l-0.91-.52-0.55-.32a1,1,0,0,1-.36-0.43l-0.06-.17L39.72,46l-0.07-.2A2.76,2.76,0,0,0,39.12,45h0a0.34,0.34,0,0,0-.19-0.14h0l0,0a0.64,0.64,0,0,0,.06.34l0.12,0.41,0.2,0.72c0,0.14.19,0.53,0.2,0.54l0.23,0.65v0.05h0l0,0-1.5-.85L38,46.61l-0.59-.34L36.88,46a0.18,0.18,0,0,1-.07-0.07l-0.37-.8h0l0,0-0.74-1.44A2.51,2.51,0,0,0,35.13,43h0a0.33,0.33,0,0,0-.17-0.1h0l0,0a0.48,0.48,0,0,0,.08.3l0.15,0.34,0.24,0.59h0c0.06,0.13.23,0.45,0.23,0.45l0.14,0.27L36,45.45v0l0,0-1.55-.88h0L33.31,44l-0.15-.09-1.25-.7-0.16-.09a2.55,2.55,0,0,0-.81-0.26H30.83a0.11,0.11,0,0,0-.11,0v0a0.35,0.35,0,0,0,.23.23l0.31,0.2,0.51,0.35,0,0,0.43,0.26,0.52,0.3,0.73,0.4,1,0.57c0.62,0.37,2,1.15,4.26,2.43l0.45,0.26h0L38.61,48,38,48.2h0l-0.47.11h0L37,48.51l-0.35.11a0.52,0.52,0,0,0-.27.13,0.06,0.06,0,0,0,0,0s0,0.08.2,0.1h0l0.37,0a2,2,0,0,0,.47,0l1.54-.36,0.33-.09h0l0.41-.1h0.05a1,1,0,0,1,.46.15l1.87,1L43,50l0.33,0.2,0.4,0.22,0.43,0.23h0l0,0a2.47,2.47,0,0,0-.51.24h0a0.34,0.34,0,0,0-.12.11,0.07,0.07,0,0,0,0,.06,0.14,0.14,0,0,0,.14.06l0.17,0,0.34,0h0l0.52-.07,0.07,0h0a0.22,0.22,0,0,1,.09,0l0.25,0.13,0.1,0,0.24,0.12a2.38,2.38,0,0,0,.32.14h0.16a0.13,0.13,0,0,0,.12-0.05v0a0.13,0.13,0,0,0,0-.09v0Zm0,0a0.05,0.05,0,0,1,0,0v0Zm-7.12-6.53h0Zm3.22,3.26h0Zm-3.26-3.26h0Zm-4-2h0Zm-4.18,0h0Zm5.72,5.81a0.25,0.25,0,0,0-.11.1,0.05,0.05,0,0,1,0,0A0.22,0.22,0,0,1,36.46,48.68Z"/><path class="a" d="M2.64,107.55c2.39,0,4.19-1.18,4.14-4a3.87,3.87,0,0,0-4.13-3.95H1.3l0.14,7.93h1.2Zm-2.47,1.14L0,98.44H2.6c3,0,5.5,1.81,5.55,5.16S6,108.72,2.66,108.7H0.17Z"/><path class="a" d="M16.3,99.5a3.93,3.93,0,0,0-4,4.08,4.28,4.28,0,0,0,4.07,4.23,4,4,0,0,0,4.06-4.1,4.18,4.18,0,0,0-4.11-4.2h0ZM16.46,109a5.5,5.5,0,0,1-5.53-5.35,5.21,5.21,0,0,1,5.35-5.3,5.44,5.44,0,0,1,5.49,5.4A5.23,5.23,0,0,1,16.46,109h0Z"/><path class="a" d="M34.88,108.88l-0.74-6.09c0-.13,0-0.41,0-0.52,0,0.08-.14.3-0.22,0.46l-3.42,6.52-3.65-6.54c-0.1-.18-0.18-0.35-0.24-0.49a2.14,2.14,0,0,1,0,.53l-0.51,6.09H24.74l1-10.52,4.51,8a1.67,1.67,0,0,1,.18.44,4.07,4.07,0,0,1,.17-0.43l4.22-7.89,1.4,10.52H34.88Z"/><polygon class="a" points="39.72 108.91 39.55 98.66 40.84 98.67 41.01 108.91 39.72 108.91 39.72 108.91"/><polygon class="a" points="46.13 101.58 46.26 108.94 44.98 108.94 44.81 98.42 52.59 106.26 52.45 98.73 53.74 98.74 53.9 109.35 46.13 101.58 46.13 101.58"/><polygon class="a" points="57.88 109.01 57.71 98.76 58.99 98.77 59.17 109.02 57.88 109.01 57.88 109.01"/><path class="a" d="M67.81,99.8a3.93,3.93,0,0,0-4,4.08,4.29,4.29,0,0,0,4.07,4.23,4,4,0,0,0,4.06-4.1,4.18,4.18,0,0,0-4.11-4.2h0ZM68,109.27a5.5,5.5,0,0,1-5.53-5.35,5.21,5.21,0,0,1,5.35-5.3,5.44,5.44,0,0,1,5.49,5.4A5.23,5.23,0,0,1,68,109.27h0Z"/><polygon class="a" points="77.85 101.76 77.99 109.12 76.71 109.11 76.54 98.6 84.32 106.44 84.18 98.91 85.46 98.92 85.63 109.53 77.85 101.76 77.85 101.76"/><path class="a" d="M102.6,108.15a4.87,4.87,0,0,1-3.47,1.29,5.49,5.49,0,0,1-5.56-5.35,5.27,5.27,0,0,1,8.85-3.9l-0.69.9a4,4,0,0,0-3-1.13,3.83,3.83,0,0,0-3.83,4.2,4.21,4.21,0,0,0,4.19,4.11,4.11,4.11,0,0,0,2.87-1l0.6,0.86h0Z"/><polygon class="a" points="105.86 109.28 105.68 99.03 106.97 99.04 107.14 109.29 105.86 109.28 105.86 109.28"/><polygon class="a" points="113.06 109.32 112.91 100.24 109.95 100.22 109.93 99.07 117.13 99.11 117.15 100.26 114.19 100.25 114.35 109.33 113.06 109.32 113.06 109.32"/><path class="a" d="M122.38,109.37l-0.07-4.4-3.6-5.86h1.45l2.72,4.62a0.76,0.76,0,0,1,.09.34,0.72,0.72,0,0,1,.09-0.33l2.6-4.59h1.42L123.59,105l0.08,4.4h-1.28Z"/><path class="a" d="M18,123.4c1.71,0,2.52-.83,2.5-2.06a2.28,2.28,0,0,0-2.48-2H16.21l0.07,4.1H18Zm-1-4.66c1.65,0,2.69-.87,2.67-2,0-1.35-1-1.81-2.27-1.82H16.13l0.07,3.86H17Zm-1.28,5.21-0.16-9.63h1.75c1.67,0,3,.52,3,2.39a2.31,2.31,0,0,1-1.57,2.12,2.7,2.7,0,0,1,2.47,2.5C21.17,123,20.07,124,18,124H15.69Z"/><path class="a" d="M26,119.51c1.95,0,3-.84,3-2.39s-1.16-2.18-2.61-2.19H25.19l0.08,4.58H26ZM29.88,124l-4.07-3.95H25.27L25.34,124h-0.6l-0.16-9.63H26.4c1.43,0,3.21.67,3.24,2.74,0,1.68-1.13,2.87-3.09,2.95l4.23,4H29.88Z"/><polygon class="a" points="33.53 124.03 33.36 114.42 38.05 114.45 38.06 115 33.97 114.97 34.04 118.59 37.32 118.61 37.33 119.16 34.05 119.14 34.12 123.49 38.62 123.51 38.63 124.06 33.53 124.03 33.53 124.03"/><path class="a" d="M46.68,116l-2.85,8.42-3.26-10h0.71l2.51,7.87a1.92,1.92,0,0,1,.08.43,2.23,2.23,0,0,1,.08-0.43l2.73-8.1,3,8.14a1.92,1.92,0,0,1,.08.43,2.85,2.85,0,0,1,.07-0.43L52,114.52h0.68l-2.86,10L46.68,116h0Z"/><polygon class="a" points="55.88 124.17 55.72 114.54 56.32 114.54 56.49 124.17 55.88 124.17 55.88 124.17"/><polygon class="a" points="61.13 115.96 61.27 124.2 60.66 124.19 60.49 114.33 68.03 122.89 67.89 114.61 68.5 114.61 68.67 124.56 61.13 115.96 61.13 115.96"/><path class="a" d="M78,120.49v-0.54l3.31,0a4.13,4.13,0,0,1-4.3,4.49,5.09,5.09,0,0,1-5-5,4.77,4.77,0,0,1,4.9-5,5.09,5.09,0,0,1,3.51,1.39l-0.37.44a4.64,4.64,0,0,0-3.1-1.26,4.11,4.11,0,0,0-4.3,4.43,4.47,4.47,0,0,0,4.33,4.4,3.48,3.48,0,0,0,3.69-3.39l-2.69,0h0Z"/><path class="a" d="M96.73,123.38a4.55,4.55,0,0,1-3.1,1.17,5,5,0,0,1-5.05-5,4.78,4.78,0,0,1,4.88-5,4.7,4.7,0,0,1,3.14,1.22l-0.36.46a3.82,3.82,0,0,0-2.89-1.1,4.11,4.11,0,0,0-4.15,4.46A4.45,4.45,0,0,0,93.64,124a4,4,0,0,0,2.8-1l0.29,0.42h0Z"/><path class="a" d="M104.1,115.21a4.18,4.18,0,0,0-4.3,4.34,4.54,4.54,0,0,0,4.36,4.49,4.21,4.21,0,0,0,4.35-4.37,4.43,4.43,0,0,0-4.41-4.47h0Zm0.16,9.39a5.1,5.1,0,0,1-5.09-5,4.83,4.83,0,0,1,4.92-5,5,5,0,0,1,5.05,5.06,4.82,4.82,0,0,1-4.88,4.91h0Z"/><path class="a" d="M111.48,124.61a0.57,0.57,0,0,1-.56-0.55,0.54,0.54,0,0,1,.54-0.57,0.57,0.57,0,0,1,.56.58,0.54,0.54,0,0,1-.54.54h0Z"/></svg>