<svg xmlns="http://www.w3.org/2000/svg" viewBox="0 0 452.43 110.29"><defs><style>.a{fill:#ed302e;transition:all 0.3s;}.b{fill:#f6ecc9;transition:all 0.3s;}svg:hover .a{fill:#f6ecc9;stroke:#ed302e;stroke-width:10px;}svg:hover .b{fill:#ed302e;}</style></defs><title>volunteer-cta</title><rect class="a" width="452.43" height="110.29"/><path class="b" d="M82,37.12a1.58,1.58,0,0,1,1.12,1.09,22.9,22.9,0,0,1,1.31,3.72q0.76,2.63,1.85,7t2.77,10.91a1.4,1.4,0,0,0,.34.45Q92,52.62,93.56,48.06t2.49-7a17.7,17.7,0,0,1,1.43-3.16,1.34,1.34,0,0,1,1-.73,10.79,10.79,0,0,1,4.08,1.57q3.58,0.5,3.64,2.07-1,3.92-2.29,7.72T101,56.37q-1.54,4-3.33,8.45t-3.86,9.62a3.13,3.13,0,0,1-2.41,1.12l-3.36-.78a4.92,4.92,0,0,1-1.45.22q-0.84,0-2.21-2.43a49.21,49.21,0,0,1-3-6.82q-1.62-4.39-3.36-10.52t-3.3-13.51v-0.9a2.11,2.11,0,0,1,.31-1.45,2.41,2.41,0,0,1,1.23-.7q0.87-.25,2.27-0.53A26.71,26.71,0,0,0,82,37.12Z"/><path class="b" d="M120.07,36.79a2.41,2.41,0,0,1,2.35,1.85,0.1,0.1,0,0,0,.11.11h0.11q1.4-1.57,2.35-1.57a12.52,12.52,0,0,1,5.23,2.32,15.05,15.05,0,0,1,3.66,4.08,19.55,19.55,0,0,1,2.21,5.23,26.43,26.43,0,0,1,.87,5.76L137,56.09a25.5,25.5,0,0,1-3.52,13.59q-4.7,5.87-10.85,5.87h-0.56a11.81,11.81,0,0,1-5.54-1.37,15.49,15.49,0,0,1-4.67-3.78,19.55,19.55,0,0,1-3.3-5.65,21.92,21.92,0,0,1-1.43-7l-0.06-1.45A22.67,22.67,0,0,1,112.19,41q4.08-4.25,7.66-4.25h0.22ZM116.49,56.2a17.37,17.37,0,0,0,1.65,7.52,4.69,4.69,0,0,0,4.34,2.77,4,4,0,0,0,2.13-.67,6,6,0,0,0,1.87-2,11.24,11.24,0,0,0,1.26-3.36,18.36,18.36,0,0,0,.33-4.7V55.7q-0.45-8.45-4-10.07a13.41,13.41,0,0,0-3-.45,0.91,0.91,0,0,0-.67-0.56q-4.08,3.08-3.86,11.13V56.2Z"/><path class="b" d="M148.6,38.41a2.66,2.66,0,0,1,2.46,1q-0.17,8.45-.22,14.52T151,64.09q0.11,2.29.39,2.29h1.4q1.51,0,4.67-.34T165.67,65a1.3,1.3,0,0,1,1.29,1.4l-0.56,1.85v0.34l0.78,2.85q0.11,2.63-6.15,3-11,1.17-14.94,1.17-2,0-3.75-2.41-0.5-3.24-.84-6.77t-0.45-7.55l-0.11-3a70.2,70.2,0,0,1,1.51-16.17A2.28,2.28,0,0,1,144,38.63l1.57,0.11a24.22,24.22,0,0,1,2.41-.34h0.62Z"/><path class="b" d="M197.1,37.51A1.5,1.5,0,0,1,198.62,39q-0.06,9.85-.08,16.42t0.08,10.43q0,0.56.33,5.59-0.34,2.74-1.51,2.74l-5.71,1.4q-2.07,0-2.18-4.14h-0.22q-5,4.14-9.29,4.14h-0.34a8.35,8.35,0,0,1-7.19-4.11q-2.77-4.11-3.1-12.28l-0.06-1.62a69.51,69.51,0,0,1,1.9-17.84q0.78-1.29,3.64-1.29a7.68,7.68,0,0,1,2.74-.45h0.45q2.46,0,2.57,1.34-0.73,6.77-1,11.33a68.32,68.32,0,0,0-.2,7.13l0.06,1q0.17,5,2.63,6l1.29,0.11q2.24,0,4.87-3.86,0.11-21.65,1.73-22,0.28-1,5.26-1A3.66,3.66,0,0,1,197.1,37.51Z"/><path class="b" d="M214.72,37.12q1.17,0,3.8,7.55,3.3,8.84,5.09,11.58h0.11a44.29,44.29,0,0,0,0-4.47q-0.06-1.73-.17-5t-0.34-8.14q0.06-.67,1.12-0.67l1.48,0.17,0.64,0.06h0.34q0.34,0,2.46-.34,2.4,0,2.46,1.73,0.22,1.57.36,3.22t0.25,3.38l0.11,3.58q0.17,5.09,0,11.16t-0.73,13.4a5.45,5.45,0,0,1-2.63,1l-0.53,0-1.15-.08a4.78,4.78,0,0,1-1.62.56q-2.18,0-3.8-4.14l-9-18.91h-0.11q-0.34,0-.22,7.72l0.28,7.44q0.22,6.88-.73,6.88a11.36,11.36,0,0,1-3,.56,6.92,6.92,0,0,1-2.8-.56l-0.45.11q-1,0-1.34-2.52-0.28-7.94-.06-16t0.84-16.81Q205.38,38.75,214.72,37.12Z"/><path class="b" d="M263.45,37.12q2.91,0.5,3,1.85L266,40.7a3.83,3.83,0,0,1,.39,1.62,3,3,0,0,1-.67,2.24,4.68,4.68,0,0,1-2.15,1.2,16.36,16.36,0,0,1-3.44.56q-2,.14-4.53.25-0.28,3.52-.34,6.57t0.06,5.79l0.17,4.81q0.06,3.3.67,9.4,0.05,2.41-4.64,2.41a8.53,8.53,0,0,0-3.75-.67q-1.29,0-1.62-8.84-0.11-3.24.06-7.92t0.67-10.77h-0.11l-7.13.59q-2.38.2-2.66,0.2a1.86,1.86,0,0,1-1.23-1.73l0.22-3a13.91,13.91,0,0,0-.28-1.68q0.22-2.69,2.63-2.69,8.78-.95,15-1.45T263.45,37.12Z"/><path class="b" d="M283.14,38.19a68,68,0,0,1,7.58.31q2.49,0.31,2.49.59a4.39,4.39,0,0,1,.5,1.54q0.22,1.15.56,2.83a1.29,1.29,0,0,1-.59,1.26,6.44,6.44,0,0,1-2.38.67q-1.73.25-4.73,0.45t-7.64.59a48.27,48.27,0,0,0-.5,5.09q1.62-.11,3.16-0.17t3-.06h1.85a17.5,17.5,0,0,1,2.49.14,3.63,3.63,0,0,1,1.4.45,1.54,1.54,0,0,1,.64.78,6.9,6.9,0,0,1,.28,1.15q-0.78,4.48-1.17,4.48,0.06,0.28-.81.47a16.29,16.29,0,0,1-2.18.31q-1.32.11-2.85,0.2l-2.88.17q-1.34.08-2.24,0.2a1,1,0,0,0-.9.34v6.43l0.06,1.51h0.11q5.43-.73,9-1.06t5.48-.34h0.78a2.66,2.66,0,0,1,2.57,1.62,4.15,4.15,0,0,0-.5,1.85,5.84,5.84,0,0,0,.08.87q0.08,0.53.2,1.31,0.11,1.85-4,2.29-5.26.56-9.82,0.84t-8.59.28a5.67,5.67,0,0,0-1.2-.7,15.89,15.89,0,0,0-1.59-.59q-0.9-1.06-1.06-5.37-0.11-3.19.17-8.59t1-13.51a5.94,5.94,0,0,0-1.79-.39,0.52,0.52,0,0,1-.53-0.36,5.54,5.54,0,0,1-.25-1.09L268,43.16a22.25,22.25,0,0,0-.56-2.46,1.47,1.47,0,0,1,1.09-1.17,11.06,11.06,0,0,1,2.85-.78q1.76-.28,4-0.42t4.5-.14h3.24Z"/><path class="b" d="M313.4,38.19a68,68,0,0,1,7.58.31q2.49,0.31,2.49.59a4.39,4.39,0,0,1,.5,1.54q0.22,1.15.56,2.83a1.29,1.29,0,0,1-.59,1.26,6.44,6.44,0,0,1-2.38.67q-1.73.25-4.73,0.45t-7.64.59a48.27,48.27,0,0,0-.5,5.09q1.62-.11,3.16-0.17t3-.06h1.85a17.5,17.5,0,0,1,2.49.14,3.63,3.63,0,0,1,1.4.45,1.54,1.54,0,0,1,.64.78,6.9,6.9,0,0,1,.28,1.15q-0.78,4.48-1.17,4.48,0.06,0.28-.81.47a16.29,16.29,0,0,1-2.18.31q-1.32.11-2.85,0.2l-2.88.17q-1.34.08-2.24,0.2a1,1,0,0,0-.9.34v6.43l0.06,1.51h0.11q5.43-.73,9-1.06t5.48-.34h0.78a2.66,2.66,0,0,1,2.57,1.62A4.15,4.15,0,0,0,326,70a5.84,5.84,0,0,0,.08.87q0.08,0.53.2,1.31,0.11,1.85-4,2.29-5.26.56-9.82,0.84t-8.59.28a5.67,5.67,0,0,0-1.2-.7,15.89,15.89,0,0,0-1.59-.59Q300.2,73.2,300,68.9q-0.11-3.19.17-8.59t1-13.51a5.94,5.94,0,0,0-1.79-.39,0.52,0.52,0,0,1-.53-0.36,5.54,5.54,0,0,1-.25-1.09l-0.28-1.79a22.25,22.25,0,0,0-.56-2.46,1.47,1.47,0,0,1,1.09-1.17,11.06,11.06,0,0,1,2.85-.78q1.76-.28,4-0.42t4.5-.14h3.24Z"/><path class="b" d="M343.33,36.4a17.44,17.44,0,0,1,4.81.67,14,14,0,0,1,4.22,2,10.66,10.66,0,0,1,3,3.27,9,9,0,0,1,1.23,4.53q0.28,6.38-7.66,10.85a26.4,26.4,0,0,0,2.85,2.74l7,6.21q2.69,2.85,2.74,3.47v0.11q0.06,1.51-2.07,4.08-0.34,3.47-2.35,3.47-2.57-1.29-13.87-13.43a8.82,8.82,0,0,0-2.68-2.63h-0.22a2.09,2.09,0,0,1,0,.59,5.58,5.58,0,0,1-.08.59L341,72.42a2.35,2.35,0,0,1-.31,1.48,2.39,2.39,0,0,1-1.2.84,10,10,0,0,1-2.13.48l-3,.39a1.78,1.78,0,0,1-1.59-1.17,10.67,10.67,0,0,1-.9-2.85,25.91,25.91,0,0,1-.39-3.47q-0.08-1.79-.08-3A147.82,147.82,0,0,1,332,47.53h-0.11a8.91,8.91,0,0,0-2.41.56A1.47,1.47,0,0,1,328.28,47l-0.06-1.29a20.76,20.76,0,0,0-.89-4.36V41q-0.11-2.46,9.57-4.14,1.29-.22,2.66-0.34t2.77-.11h1Zm-3,8.39q-0.11,3-.14,4.92t0,2.85h0.11q7-1.57,6.94-4.36V47.64a3.1,3.1,0,0,0-2.85-3.08h-1.23A13.49,13.49,0,0,0,340.31,44.79Z"/><path class="b" d="M375.1,36.12q1.56,0,1.68,1.17-0.34,2.35-1.12,6.38t-2,9.79q-0.45,3-.75,4.75a16.55,16.55,0,0,1-.48,2.18,3.5,3.5,0,0,1-2.57,1.06h-0.06q-2.69,0-2.74-3.36-1.45-8.73-2.54-13.68t-1.37-6.57a1.17,1.17,0,0,1,1.46-1.17l1.57,0.11,1.34-.08,0.84,0,0.39,0,1,0.08a44.8,44.8,0,0,1,5.15-.67h0.22ZM370.8,64.2q4.75,0.5,4.87,4.14-0.56,4.92-1.12,4.92a4.66,4.66,0,0,1-4.08,2.29h-0.39q-3.58,0-5.54-4.14a3,3,0,0,1-.28-1.23V69.74a4.33,4.33,0,0,1,.28-1.71,5.48,5.48,0,0,1,1.06-1.82,6.48,6.48,0,0,1,1.79-1.43,5,5,0,0,1,2.46-.59h1Z"/></svg>